<svg width="94.000000" height="94.000000" viewBox="0 0 94 94" fill="none" xmlns="http://www.w3.org/2000/svg" xmlns:xlink="http://www.w3.org/1999/xlink">
	<desc>
			Created with Pixso.
	</desc>
	<defs>
		<clipPath id="clip67_197">
			<rect id="Icon" width="30.000000" height="30.000000" transform="translate(32.000000 32.000000)" fill="white" fill-opacity="0"/>
		</clipPath>
		<linearGradient id="paint_linear_67_195_0" x1="47.000000" y1="0.000000" x2="47.000000" y2="94.000000" gradientUnits="userSpaceOnUse">
			<stop stop-color="#CAFF33"/>
			<stop offset="1.000000" stop-color="#CAFF33" stop-opacity="0.000000"/>
		</linearGradient>
		<linearGradient id="paint_linear_67_196_0" x1="47.000000" y1="-34.351345" x2="47.000000" y2="192.675674" gradientUnits="userSpaceOnUse">
			<stop stop-color="#CAFF33"/>
			<stop offset="0.467671" stop-color="#CAFF33" stop-opacity="0.000000"/>
		</linearGradient>
		<linearGradient id="paint_linear_67_196_1" x1="47.000000" y1="-109.554047" x2="47.000000" y2="145.378372" gradientUnits="userSpaceOnUse">
			<stop stop-color="#CAFF33"/>
			<stop offset="0.716291" stop-color="#CAFF33" stop-opacity="0.000000"/>
		</linearGradient>
	</defs>
	<rect id="Icon Container" rx="47.000000" width="94.000000" height="94.000000" fill="url(#paint_linear_67_195_0)" fill-opacity="0.050000"/>
	<rect id="Button" rx="17.500000" width="69.000000" height="69.000000" transform="translate(12.500000 12.500000)" fill="url(#paint_linear_67_196_0)" fill-opacity="0.100000"/>
	<rect id="Icon" width="30.000000" height="30.000000" transform="translate(32.000000 32.000000)" fill="#FFFFFF" fill-opacity="0"/>
	<g clip-path="url(#clip67_197)">
		<path id="path4" d="M58.0547 53.4312C57.6367 54.3918 57.1445 55.2764 56.5742 56.0894C55.7969 57.1978 55.1602 57.9651 54.6719 58.3911C53.9102 59.0906 53.0938 59.4487 52.2227 59.469C51.5977 59.469 50.8398 59.2908 49.9609 58.9292C49.0781 58.5693 48.2695 58.3911 47.5273 58.3911C46.75 58.3911 45.9141 58.5693 45.0234 58.9292C44.1328 59.2908 43.4102 59.4792 42.8594 59.4978C42.0234 59.5334 41.1914 59.1653 40.3594 58.3911C39.8281 57.9277 39.1641 57.1333 38.3672 56.0078C37.5117 54.8062 36.8086 53.4124 36.2578 51.8235C35.6719 50.1074 35.375 48.4456 35.375 46.8367C35.375 44.9937 35.7734 43.4043 36.5703 42.0723C37.1992 41.0024 38.0312 40.1584 39.0742 39.5388C40.1211 38.9192 41.2461 38.6035 42.4609 38.5833C43.125 38.5833 43.9961 38.7888 45.082 39.1929C46.1602 39.5981 46.8555 39.8037 47.1562 39.8037C47.3867 39.8037 48.1562 39.5635 49.4609 39.0842C50.6953 38.6396 51.7383 38.4558 52.5938 38.5283C54.9062 38.7151 56.6445 39.627 57.8008 41.2703C55.7305 42.5239 54.707 44.28 54.7266 46.5327C54.7461 48.2874 55.3828 49.7476 56.6328 50.907C57.1992 51.4451 57.8359 51.8608 58.5391 52.1562C58.3867 52.5994 58.2266 53.0237 58.0547 53.4312ZM52.7461 32.5503C52.7461 33.9258 52.2461 35.21 51.2422 36.3984C50.0352 37.8113 48.5742 38.6279 46.9883 38.499C46.9688 38.334 46.957 38.1604 46.957 37.978C46.957 36.6577 47.5312 35.2446 48.5508 34.0894C49.0586 33.5044 49.707 33.0181 50.4961 32.6301C51.2773 32.2478 52.0195 32.0364 52.7188 32.0002C52.7383 32.1841 52.7461 32.3679 52.7461 32.5503L52.7461 32.5503Z" fill="#CAFF33" fill-opacity="1.000000" fill-rule="nonzero"/>
	</g>
	<rect id="Button" rx="17.500000" width="69.000000" height="69.000000" transform="translate(12.500000 12.500000)" stroke="url(#paint_linear_67_196_1)" stroke-opacity="0.200000" stroke-width="1.000000"/>
</svg>
