<svg width="94.000000" height="94.000000" viewBox="0 0 94 94" fill="none" xmlns="http://www.w3.org/2000/svg" xmlns:xlink="http://www.w3.org/1999/xlink">
	<desc>
			Created with Pixso.
	</desc>
	<defs>
		<clipPath id="clip67_204">
			<rect id="Icon" width="30.000000" height="30.000000" transform="translate(32.000000 32.000000)" fill="white" fill-opacity="0"/>
		</clipPath>
		<linearGradient id="paint_linear_67_202_0" x1="47.000000" y1="0.000000" x2="47.000000" y2="94.000000" gradientUnits="userSpaceOnUse">
			<stop stop-color="#CAFF33"/>
			<stop offset="1.000000" stop-color="#CAFF33" stop-opacity="0.000000"/>
		</linearGradient>
		<linearGradient id="paint_linear_67_203_0" x1="47.000000" y1="-34.351345" x2="47.000000" y2="192.675674" gradientUnits="userSpaceOnUse">
			<stop stop-color="#CAFF33"/>
			<stop offset="0.467671" stop-color="#CAFF33" stop-opacity="0.000000"/>
		</linearGradient>
		<linearGradient id="paint_linear_67_203_1" x1="47.000000" y1="-109.554047" x2="47.000000" y2="145.378372" gradientUnits="userSpaceOnUse">
			<stop stop-color="#CAFF33"/>
			<stop offset="0.716291" stop-color="#CAFF33" stop-opacity="0.000000"/>
		</linearGradient>
	</defs>
	<rect id="Icon Container" rx="47.000000" width="94.000000" height="94.000000" fill="url(#paint_linear_67_202_0)" fill-opacity="0.050000"/>
	<rect id="Button" rx="17.500000" width="69.000000" height="69.000000" transform="translate(12.500000 12.500000)" fill="url(#paint_linear_67_203_0)" fill-opacity="0.100000"/>
	<rect id="Icon" width="30.000000" height="30.000000" transform="translate(32.000000 32.000000)" fill="#FFFFFF" fill-opacity="0"/>
	<g clip-path="url(#clip67_204)">
		<path id="Vector" d="M62 47C62 38.7158 55.2852 32 47 32C38.7148 32 32 38.7158 32 47C32 54.4868 37.4844 60.6924 44.6562 61.8179L44.6562 51.3359L40.8477 51.3359L40.8477 47L44.6562 47L44.6562 43.6953C44.6562 39.936 46.8945 37.8594 50.3203 37.8594C51.9609 37.8594 53.6797 38.1523 53.6797 38.1523L53.6797 41.8438L51.7891 41.8438C49.9258 41.8438 49.3438 43 49.3438 44.1875L49.3438 47L53.5039 47L52.8398 51.3359L49.3438 51.3359L49.3438 61.8179C56.5156 60.6924 62 54.4868 62 47Z" fill="#CAFF33" fill-opacity="1.000000" fill-rule="nonzero"/>
		<path id="Vector" d="M52.8398 51.3359L53.5039 47L49.3438 47L49.3438 44.1875C49.3438 43.0012 49.9258 41.8438 51.7891 41.8438L53.6797 41.8438L53.6797 38.1523C53.6797 38.1523 51.9648 37.8594 50.3203 37.8594C46.8945 37.8594 44.6562 39.936 44.6562 43.6953L44.6562 47L40.8477 47L40.8477 51.3359L44.6562 51.3359L44.6562 61.8179C46.2109 62.0608 47.7891 62.0608 49.3438 61.8179L49.3438 51.3359L52.8398 51.3359Z" fill="#1C1C1C" fill-opacity="1.000000" fill-rule="nonzero"/>
	</g>
	<rect id="Button" rx="17.500000" width="69.000000" height="69.000000" transform="translate(12.500000 12.500000)" stroke="url(#paint_linear_67_203_1)" stroke-opacity="0.200000" stroke-width="1.000000"/>
</svg>
