<svg width="98.000000" height="98.000000" viewBox="0 0 98 98" fill="none" xmlns="http://www.w3.org/2000/svg" xmlns:xlink="http://www.w3.org/1999/xlink">
	<desc>
			Created with Pixso.
	</desc>
	<defs>
		<clipPath id="clip103_142">
			<rect id="Icon" width="34.000000" height="34.000000" transform="translate(32.000000 32.000000)" fill="white" fill-opacity="0"/>
		</clipPath>
		<linearGradient id="paint_linear_53_601_0" x1="49.000000" y1="0.000000" x2="49.000000" y2="98.000000" gradientUnits="userSpaceOnUse">
			<stop stop-color="#CAFF33"/>
			<stop offset="1.000000" stop-color="#CAFF33" stop-opacity="0.000000"/>
		</linearGradient>
		<linearGradient id="paint_linear_53_602_0" x1="49.000000" y1="-36.999992" x2="49.000000" y2="203.000000" gradientUnits="userSpaceOnUse">
			<stop stop-color="#CAFF33"/>
			<stop offset="0.467671" stop-color="#CAFF33" stop-opacity="0.000000"/>
		</linearGradient>
		<linearGradient id="paint_linear_53_602_1" x1="49.000015" y1="-116.499985" x2="49.000015" y2="153.000015" gradientUnits="userSpaceOnUse">
			<stop stop-color="#CAFF33"/>
			<stop offset="0.716291" stop-color="#CAFF33" stop-opacity="0.000000"/>
		</linearGradient>
	</defs>
	<rect id="Icon Container" rx="49.000000" width="98.000000" height="98.000000" fill="url(#paint_linear_53_601_0)" fill-opacity="0.050000"/>
	<rect id="Icon" rx="18.500000" width="73.000000" height="73.000000" transform="translate(12.500000 12.500000)" fill="url(#paint_linear_53_602_0)" fill-opacity="0.100000"/>
	<g clip-path="url(#clip103_142)">
		<path id="Vector" d="M49 33.0625C42.5449 33.0625 37.3125 38.2952 37.3125 44.75C37.3125 49.0719 39.6592 52.8445 43.1426 54.8657C44.1133 55.4291 44.7217 56.2936 44.749 57.1636C44.7637 57.6435 45.0996 58.0536 45.5664 58.1641C46.0645 58.2817 46.5713 58.3743 47.0869 58.4405C47.5449 58.4994 47.9375 58.1322 47.9375 57.67L47.9375 51.0668C47.4854 51.0168 47.042 50.9352 46.6104 50.824C46.042 50.6777 45.7002 50.0985 45.8467 49.5302C45.9922 48.9619 46.5723 48.6198 47.1396 48.7661C47.7334 48.9188 48.3564 49.0002 49 49.0002C49.6436 49.0002 50.2676 48.9188 50.8604 48.7661C51.4287 48.6198 52.0078 48.9619 52.1543 49.5302C52.3008 50.0985 51.958 50.6777 51.3896 50.824C50.958 50.9352 50.5146 51.0168 50.0625 51.0668L50.0625 57.6699C50.0625 58.1321 50.4551 58.4993 50.9141 58.4404C51.4287 58.3742 51.9355 58.2817 52.4336 58.1641C52.9004 58.0536 53.2363 57.6435 53.251 57.1636C53.2783 56.2936 53.8867 55.4291 54.8574 54.8657C58.3408 52.8445 60.6875 49.0719 60.6875 44.75C60.6875 38.2952 55.4551 33.0625 49 33.0625ZM44.7686 60.1912C44.8779 59.6147 45.4336 59.236 46.0107 59.3453C46.9785 59.5289 47.9775 59.6251 49 59.6251C50.0225 59.6251 51.0215 59.5289 51.9893 59.3453C52.5664 59.236 53.1221 59.6147 53.2314 60.1912C53.3408 60.7677 52.9619 61.3237 52.3857 61.4331C51.2881 61.6412 50.1562 61.7501 49 61.7501C47.8438 61.7501 46.7119 61.6412 45.6143 61.4331C45.0381 61.3237 44.6592 60.7677 44.7686 60.1912ZM46.9854 62.7078C46.4023 62.6467 45.8789 63.0703 45.8184 63.6539C45.7568 64.2375 46.1807 64.7602 46.7646 64.8212C47.499 64.8981 48.2451 64.9375 49 64.9375C49.7549 64.9375 50.501 64.8981 51.2354 64.8212C51.8193 64.7602 52.2432 64.2375 52.1816 63.6539C52.1211 63.0703 51.5977 62.6467 51.0146 62.7078C50.3525 62.777 49.6807 62.8125 49 62.8125C48.3193 62.8125 47.6475 62.777 46.9854 62.7078Z" fill="#CAFF33" fill-opacity="1.000000" fill-rule="evenodd"/>
	</g>
	<rect id="Icon" rx="18.500000" width="73.000000" height="73.000000" transform="translate(12.500000 12.500000)" stroke="url(#paint_linear_53_602_1)" stroke-opacity="0.200000" stroke-width="1.000000"/>
</svg>
