<svg width="98.000000" height="98.000000" viewBox="0 0 98 98" fill="none" xmlns="http://www.w3.org/2000/svg" xmlns:xlink="http://www.w3.org/1999/xlink">
	<desc>
			Created with Pixso.
	</desc>
	<defs>
		<clipPath id="clip103_144">
			<rect id="Icon" width="34.000000" height="34.000000" transform="translate(32.000000 32.000000)" fill="white" fill-opacity="0"/>
		</clipPath>
		<linearGradient id="paint_linear_53_623_0" x1="49.000000" y1="0.000000" x2="49.000000" y2="98.000000" gradientUnits="userSpaceOnUse">
			<stop stop-color="#CAFF33"/>
			<stop offset="1.000000" stop-color="#CAFF33" stop-opacity="0.000000"/>
		</linearGradient>
		<linearGradient id="paint_linear_53_624_0" x1="49.000000" y1="-36.999992" x2="49.000000" y2="203.000000" gradientUnits="userSpaceOnUse">
			<stop stop-color="#CAFF33"/>
			<stop offset="0.467671" stop-color="#CAFF33" stop-opacity="0.000000"/>
		</linearGradient>
		<linearGradient id="paint_linear_53_624_1" x1="49.000015" y1="-116.499985" x2="49.000015" y2="153.000015" gradientUnits="userSpaceOnUse">
			<stop stop-color="#CAFF33"/>
			<stop offset="0.716291" stop-color="#CAFF33" stop-opacity="0.000000"/>
		</linearGradient>
	</defs>
	<rect id="Icon Container" rx="49.000000" width="98.000000" height="98.000000" fill="url(#paint_linear_53_623_0)" fill-opacity="0.050000"/>
	<rect id="Icon" rx="18.500000" width="73.000000" height="73.000000" transform="translate(12.500000 12.500000)" fill="url(#paint_linear_53_624_0)" fill-opacity="0.100000"/>
	<g clip-path="url(#clip103_144)">
		<path id="Subtract" d="M46.875 35.1875C44.5273 35.1875 42.625 37.0903 42.625 39.4375L42.625 39.7279C41.3037 39.8488 39.9941 40.007 38.6953 40.2013C36.6348 40.5095 35.1875 42.3015 35.1875 44.3331L35.1875 48.6301C35.1875 50.3459 36.2266 51.9626 37.9307 52.529C41.4111 53.6863 45.1338 54.3125 49 54.3125C52.8662 54.3125 56.5889 53.6863 60.0693 52.5291C61.7734 51.9626 62.8125 50.3459 62.8125 48.6301L62.8125 44.3331C62.8125 42.3015 61.3652 40.5095 59.3047 40.2012C58.0059 40.007 56.6963 39.8488 55.375 39.7279L55.375 39.4375C55.375 37.0903 53.4727 35.1875 51.125 35.1875L46.875 35.1875ZM53.25 39.5662L53.25 39.4375C53.25 38.2639 52.2988 37.3125 51.125 37.3125L46.875 37.3125C45.7012 37.3125 44.75 38.2639 44.75 39.4375L44.75 39.5662C46.1562 39.4808 47.5732 39.4375 49 39.4375C50.4268 39.4375 51.8438 39.4808 53.25 39.5662ZM50.0625 50.0625C50.0625 50.6493 49.5869 51.125 49 51.125C48.4131 51.125 47.9375 50.6493 47.9375 50.0625C47.9375 49.4757 48.4131 49 49 49C49.5869 49 50.0625 49.4757 50.0625 50.0625ZM36.25 54.1056L36.25 58.0666C36.25 60.1235 37.7334 61.9306 39.8242 62.2082C42.8271 62.6068 45.8896 62.8125 49 62.8125C52.1104 62.8125 55.1729 62.6068 58.1758 62.2082C60.2666 61.9306 61.75 60.1235 61.75 58.0666L61.75 54.1056C61.4336 54.2789 61.0967 54.4268 60.7402 54.5455C57.0459 55.7738 53.0967 56.4375 49 56.4375C44.9033 56.4375 40.9541 55.7738 37.2598 54.5455C36.9033 54.4268 36.5664 54.2789 36.25 54.1056Z" fill="#CAFF33" fill-opacity="1.000000" fill-rule="evenodd"/>
	</g>
	<rect id="Icon" rx="18.500000" width="73.000000" height="73.000000" transform="translate(12.500000 12.500000)" stroke="url(#paint_linear_53_624_1)" stroke-opacity="0.200000" stroke-width="1.000000"/>
</svg>
