<svg width="98.000000" height="98.000000" viewBox="0 0 98 98" fill="none" xmlns="http://www.w3.org/2000/svg" xmlns:xlink="http://www.w3.org/1999/xlink">
	<desc>
			Created with Pixso.
	</desc>
	<defs>
		<clipPath id="clip103_140">
			<rect id="Icon" width="34.000000" height="34.000000" transform="translate(32.000000 32.000000)" fill="white" fill-opacity="0"/>
		</clipPath>
		<linearGradient id="paint_linear_53_591_0" x1="49.000000" y1="0.000000" x2="49.000000" y2="98.000000" gradientUnits="userSpaceOnUse">
			<stop stop-color="#CAFF33"/>
			<stop offset="1.000000" stop-color="#CAFF33" stop-opacity="0.000000"/>
		</linearGradient>
		<linearGradient id="paint_linear_53_592_0" x1="49.000000" y1="-36.999992" x2="49.000000" y2="203.000000" gradientUnits="userSpaceOnUse">
			<stop stop-color="#CAFF33"/>
			<stop offset="0.467671" stop-color="#CAFF33" stop-opacity="0.000000"/>
		</linearGradient>
		<linearGradient id="paint_linear_53_592_1" x1="49.000015" y1="-116.499985" x2="49.000015" y2="153.000015" gradientUnits="userSpaceOnUse">
			<stop stop-color="#CAFF33"/>
			<stop offset="0.716291" stop-color="#CAFF33" stop-opacity="0.000000"/>
		</linearGradient>
	</defs>
	<rect id="Icon Container" rx="49.000000" width="98.000000" height="98.000000" fill="url(#paint_linear_53_591_0)" fill-opacity="0.050000"/>
	<rect id="Icon" rx="18.500000" width="73.000000" height="73.000000" transform="translate(12.500000 12.500000)" fill="url(#paint_linear_53_592_0)" fill-opacity="0.100000"/>
	<g clip-path="url(#clip103_140)">
		<path id="Subtract" d="M35.1875 35.1875C34.6006 35.1875 34.125 35.6632 34.125 36.25C34.125 36.8368 34.6006 37.3125 35.1875 37.3125L36.25 37.3125L36.25 52.1875C36.25 54.5347 38.1523 56.4375 40.5 56.4375L42.2129 56.4375L40.5547 61.414C40.3691 61.9707 40.6699 62.5724 41.2266 62.758C41.7832 62.9435 42.3848 62.6427 42.5703 62.086L43.0371 60.6875L54.9629 60.6875L55.4297 62.086C55.6152 62.6427 56.2168 62.9435 56.7734 62.758C57.3301 62.5724 57.6309 61.9707 57.4453 61.414L55.7871 56.4375L57.5 56.4375C59.8477 56.4375 61.75 54.5347 61.75 52.1875L61.75 37.3125L62.8125 37.3125C63.3994 37.3125 63.875 36.8368 63.875 36.25C63.875 35.6632 63.3994 35.1875 62.8125 35.1875L35.1875 35.1875ZM43.7451 58.5625L44.4531 56.4375L53.5469 56.4375L54.2549 58.5625L43.7451 58.5625ZM54.3125 41.5625C54.3125 40.9757 53.8369 40.5 53.25 40.5C52.6631 40.5 52.1875 40.9757 52.1875 41.5625L52.1875 50.0625C52.1875 50.6493 52.6631 51.125 53.25 51.125C53.8369 51.125 54.3125 50.6493 54.3125 50.0625L54.3125 41.5625ZM50.0625 44.75C50.0625 44.1632 49.5869 43.6875 49 43.6875C48.4131 43.6875 47.9375 44.1632 47.9375 44.75L47.9375 50.0625C47.9375 50.6493 48.4131 51.125 49 51.125C49.5869 51.125 50.0625 50.6493 50.0625 50.0625L50.0625 44.75ZM45.8125 47.9375C45.8125 47.3507 45.3369 46.875 44.75 46.875C44.1631 46.875 43.6875 47.3507 43.6875 47.9375L43.6875 50.0625C43.6875 50.6493 44.1631 51.125 44.75 51.125C45.3369 51.125 45.8125 50.6493 45.8125 50.0625L45.8125 47.9375Z" fill="#CAFF33" fill-opacity="1.000000" fill-rule="evenodd"/>
	</g>
	<rect id="Icon" rx="18.500000" width="73.000000" height="73.000000" transform="translate(12.500000 12.500000)" stroke="url(#paint_linear_53_592_1)" stroke-opacity="0.200000" stroke-width="1.000000"/>
</svg>
