<svg width="98.000000" height="98.000000" viewBox="0 0 98 98" fill="none" xmlns="http://www.w3.org/2000/svg" xmlns:xlink="http://www.w3.org/1999/xlink">
	<desc>
			Created with Pixso.
	</desc>
	<defs>
		<clipPath id="clip101_64">
			<rect id="Icon" width="34.000000" height="34.000000" transform="translate(32.000000 32.000000)" fill="white" fill-opacity="0"/>
		</clipPath>
		<linearGradient id="paint_linear_11_86912_0" x1="49.000000" y1="0.000000" x2="49.000000" y2="98.000000" gradientUnits="userSpaceOnUse">
			<stop stop-color="#CAFF33"/>
			<stop offset="1.000000" stop-color="#CAFF33" stop-opacity="0.000000"/>
		</linearGradient>
		<linearGradient id="paint_linear_11_86913_0" x1="49.000000" y1="-36.999992" x2="49.000000" y2="203.000000" gradientUnits="userSpaceOnUse">
			<stop stop-color="#CAFF33"/>
			<stop offset="0.467671" stop-color="#CAFF33" stop-opacity="0.000000"/>
		</linearGradient>
		<linearGradient id="paint_linear_11_86913_1" x1="49.000015" y1="-116.499985" x2="49.000015" y2="153.000015" gradientUnits="userSpaceOnUse">
			<stop stop-color="#CAFF33"/>
			<stop offset="0.716291" stop-color="#CAFF33" stop-opacity="0.000000"/>
		</linearGradient>
	</defs>
	<rect id="Icon Container" rx="49.000000" width="98.000000" height="98.000000" fill="url(#paint_linear_11_86912_0)" fill-opacity="0.050000"/>
	<rect id="Icon" rx="18.500000" width="73.000000" height="73.000000" transform="translate(12.500000 12.500000)" fill="url(#paint_linear_11_86913_0)" fill-opacity="0.100000"/>
	<g clip-path="url(#clip101_64)">
		<path id="Union" d="M34.125 38.9062C34.125 37.4392 35.3145 36.25 36.7812 36.25L61.2188 36.25C62.6855 36.25 63.875 37.4392 63.875 38.9062L63.875 52.7188C63.875 54.1858 62.6855 55.375 61.2188 55.375L36.7812 55.375C35.3145 55.375 34.125 54.1858 34.125 52.7188L34.125 38.9062ZM43.6875 45.8125C43.6875 42.8785 46.0659 40.5 49 40.5C51.9341 40.5 54.3125 42.8785 54.3125 45.8125C54.3125 48.7465 51.9341 51.125 49 51.125C46.0659 51.125 43.6875 48.7465 43.6875 45.8125ZM49 42.625C47.2397 42.625 45.8125 44.0521 45.8125 45.8125C45.8125 47.5729 47.2397 49 49 49C50.7603 49 52.1875 47.5729 52.1875 45.8125C52.1875 44.0521 50.7603 42.625 49 42.625ZM38.375 45.8125C38.375 45.2257 38.8506 44.75 39.4375 44.75L39.4482 44.75C40.0352 44.75 40.5107 45.2257 40.5107 45.8125L40.5107 45.8231C40.5107 46.4099 40.0352 46.8856 39.4482 46.8856L39.4375 46.8856C38.8506 46.8856 38.375 46.4099 38.375 45.8231L38.375 45.8125ZM58.5625 44.75C57.9756 44.75 57.5 45.2257 57.5 45.8125L57.5 45.8231C57.5 46.4099 57.9756 46.8856 58.5625 46.8856L58.5732 46.8856C59.1602 46.8856 59.6357 46.4099 59.6357 45.8231L59.6357 45.8125C59.6357 45.2257 59.1602 44.75 58.5732 44.75L58.5625 44.75ZM34.125 58.5625C34.125 57.9757 34.6006 57.5 35.1875 57.5L59.625 57.5C60.2119 57.5 60.6875 57.9757 60.6875 58.5625L60.6875 59.9865C60.6875 61.7738 58.9736 63.0236 57.2871 62.5645C50.2471 60.6482 42.8374 59.625 35.1875 59.625C34.6006 59.625 34.125 59.1493 34.125 58.5625Z" fill="#CAFF33" fill-opacity="1.000000" fill-rule="evenodd"/>
	</g>
	<rect id="Icon" rx="18.500000" width="73.000000" height="73.000000" transform="translate(12.500000 12.500000)" stroke="url(#paint_linear_11_86913_1)" stroke-opacity="0.200000" stroke-width="1.000000"/>
</svg>
