<svg width="78.000000" height="78.000000" viewBox="0 0 78 78" fill="none" xmlns="http://www.w3.org/2000/svg" xmlns:xlink="http://www.w3.org/1999/xlink">
	<desc>
			Created with Pixso.
	</desc>
	<defs>
		<clipPath id="clip101_121">
			<rect id="Frame" width="27.000000" height="20.000000" transform="translate(25.000000 29.000000)" fill="white" fill-opacity="0"/>
		</clipPath>
		<linearGradient id="paint_linear_21_118_0" x1="39.000000" y1="0.000000" x2="39.000000" y2="78.000000" gradientUnits="userSpaceOnUse">
			<stop stop-color="#CAFF33"/>
			<stop offset="1.000000" stop-color="#CAFF33" stop-opacity="0.000000"/>
		</linearGradient>
		<linearGradient id="paint_linear_21_119_0" x1="39.000000" y1="-28.405399" x2="39.000000" y2="159.702698" gradientUnits="userSpaceOnUse">
			<stop stop-color="#CAFF33"/>
			<stop offset="0.467671" stop-color="#CAFF33" stop-opacity="0.000000"/>
		</linearGradient>
		<linearGradient id="paint_linear_21_119_1" x1="38.999985" y1="-90.716217" x2="38.999985" y2="120.513489" gradientUnits="userSpaceOnUse">
			<stop stop-color="#CAFF33"/>
			<stop offset="0.716291" stop-color="#CAFF33" stop-opacity="0.000000"/>
		</linearGradient>
	</defs>
	<rect id="Icon Container" rx="39.000000" width="78.000000" height="78.000000" fill="url(#paint_linear_21_118_0)" fill-opacity="0.050000"/>
	<rect id="Icon" rx="14.500000" width="57.000000" height="57.000000" transform="translate(10.500000 10.500000)" fill="url(#paint_linear_21_119_0)" fill-opacity="0.100000"/>
	<rect id="Frame" width="27.000000" height="20.000000" transform="translate(25.000000 29.000000)" fill="#FFFFFF" fill-opacity="0"/>
	<g clip-path="url(#clip101_121)">
		<path id="Vector" d="M48.6577 38.0185C48.6577 38.7664 48.6675 39.5093 48.6523 40.2571C48.6426 40.6606 48.7578 41.0148 48.9688 41.3494C49.5107 42.2252 50.2285 42.9583 50.9561 43.6815C51.2271 43.9521 51.5083 44.2079 51.7939 44.4589C51.9346 44.5818 52 44.7098 52 44.9017C51.9897 45.7233 51.9897 46.54 51.9951 47.3617C52 48.0455 51.6987 48.5573 51.0713 48.8426C50.4292 49.1329 49.8267 49.0099 49.2998 48.5621C48.2109 47.6274 47.127 46.6876 46.043 45.7528C45.3052 45.1132 44.5723 44.4637 43.8198 43.8438C43.5537 43.6224 43.2373 43.4601 42.9312 43.2928C42.4795 43.0468 41.9927 42.9139 41.4658 42.9337C41.0845 42.9484 40.6929 42.9533 40.3115 42.9238C39.7544 42.8795 39.3579 42.5007 39.2827 41.9791C39.2124 41.5215 39.4888 41.0295 39.9502 40.8524C40.126 40.7836 40.3218 40.754 40.5122 40.754C41.9575 40.7442 43.4033 40.7491 44.8535 40.7491C45.3955 40.7491 45.5913 40.5573 45.5913 40.0209C45.5913 38.9385 45.5864 37.8561 45.5913 36.7737C45.5962 36.3604 45.4507 36.0357 45.1343 35.7552C43.313 34.1514 41.501 32.5376 39.6841 30.9238C39.1978 30.4908 39.1421 29.8512 39.5488 29.3838C39.9502 28.9164 40.6079 28.8721 41.1245 29.2657C43.4482 31.037 45.7671 32.8081 48.1006 34.5696C48.4868 34.8599 48.6675 35.2141 48.6626 35.6815C48.6523 36.4589 48.6577 37.2362 48.6577 38.0185Z" fill="#CAFF33" fill-opacity="1.000000" fill-rule="nonzero"/>
		<path id="Vector" d="M25.0054 46.2053C25.0054 45.7625 25.0103 45.3197 25.0005 44.8769C24.9951 44.7047 25.0654 44.5916 25.1812 44.4734C25.939 43.7109 26.6865 42.9384 27.4292 42.161C27.585 41.9987 27.7002 41.8068 27.8359 41.6297C28.1919 41.1524 28.3579 40.6309 28.3428 40.0208C28.3125 38.6137 28.3477 37.2017 28.3276 35.7896C28.3174 35.2336 28.5181 34.84 28.9751 34.4956C31.2935 32.7638 33.5869 31.0023 35.8906 29.246C36.3726 28.877 37.0347 28.9359 37.4263 29.3788C37.8276 29.8314 37.7925 30.4808 37.3257 30.9039C36.6182 31.5436 35.9004 32.1685 35.188 32.8031C34.0586 33.8019 32.9297 34.8055 31.8003 35.8043C31.5347 36.0405 31.4038 36.3259 31.4038 36.6703C31.4038 37.8167 31.3989 38.963 31.4038 40.1143C31.4038 40.5374 31.625 40.7441 32.0615 40.7441C33.5518 40.749 35.0376 40.7441 36.5278 40.749C37.2305 40.749 37.7222 41.2311 37.7075 41.8806C37.6973 42.3775 37.3311 42.8253 36.8242 42.899C36.5229 42.9434 36.2065 42.963 35.9004 42.9335C34.8716 42.8351 34.0034 43.2041 33.2358 43.8043C32.4526 44.4144 31.7202 45.0934 30.9722 45.7379C29.8735 46.6826 28.7793 47.6371 27.6753 48.5768C26.7817 49.3394 25.4619 49.0048 25.0806 47.9175C25.0303 47.7797 25.0151 47.6272 25.0103 47.4846C25.0005 47.0614 25.0054 46.6334 25.0054 46.2053Z" fill="#CAFF33" fill-opacity="1.000000" fill-rule="nonzero"/>
		<path id="Vector" d="M39.2129 39.0369C39.2129 39.2731 39.2129 39.4945 39.2129 39.7356C38.791 39.7356 38.3896 39.7356 37.9531 39.7356C37.9531 39.5437 37.9482 39.3568 37.9531 39.1697C37.958 39.032 37.918 38.973 37.7725 38.9385C37.356 38.8401 36.9692 38.6729 36.6079 38.3875C36.8389 38.0873 37.0596 37.802 37.2607 37.5363C37.6421 37.679 37.9883 37.8463 38.3545 37.9299C38.6206 37.989 38.9165 37.9496 39.1929 37.9053C39.4033 37.8708 39.5391 37.7085 39.5542 37.4871C39.5742 37.2608 39.4536 37.1033 39.2529 37.0246C38.9116 36.8967 38.5552 36.7983 38.209 36.6851C37.958 36.6015 37.6973 36.5277 37.4512 36.4244C36.874 36.1833 36.5679 35.7552 36.5527 35.1255C36.5376 34.4662 36.7886 33.9348 37.3911 33.6494C37.7822 33.4625 38.1187 33.3247 37.9229 32.7786C38.3496 32.7786 38.7207 32.7737 39.0972 32.7885C39.1377 32.7885 39.2075 32.9115 39.2075 32.9803C39.2329 33.3986 39.2329 33.3887 39.6294 33.5265C39.8604 33.6052 40.0811 33.7184 40.332 33.8315C40.1211 34.1514 39.9507 34.4318 39.7598 34.6974C39.7295 34.7368 39.6094 34.7319 39.5391 34.7122C39.2075 34.6285 38.8867 34.5203 38.5552 34.4563C38.4248 34.4318 38.2744 34.4711 38.1387 34.5056C37.938 34.5597 37.8027 34.6925 37.7876 34.9091C37.7725 35.1206 37.8677 35.283 38.0635 35.3617C38.3193 35.465 38.5806 35.5437 38.8413 35.6273C39.1274 35.7208 39.4233 35.7897 39.6997 35.8931C40.4976 36.1981 40.8188 36.6802 40.7783 37.4724C40.7383 38.2005 40.2817 38.7417 39.5288 38.9533C39.4385 38.9828 39.3433 39.0074 39.2129 39.0369Z" fill="#CAFF33" fill-opacity="1.000000" fill-rule="nonzero"/>
	</g>
	<rect id="Icon" rx="14.500000" width="57.000000" height="57.000000" transform="translate(10.500000 10.500000)" stroke="url(#paint_linear_21_119_1)" stroke-opacity="0.200000" stroke-width="1.000000"/>
</svg>
