<svg width="78.000000" height="78.000000" viewBox="0 0 78 78" fill="none" xmlns="http://www.w3.org/2000/svg" xmlns:xlink="http://www.w3.org/1999/xlink">
	<desc>
			Created with Pixso.
	</desc>
	<defs>
		<clipPath id="clip101_136">
			<rect id="Icon" width="30.000000" height="30.000000" transform="translate(24.000000 24.000000)" fill="white" fill-opacity="0"/>
		</clipPath>
		<linearGradient id="paint_linear_21_165_0" x1="39.000000" y1="0.000000" x2="39.000000" y2="78.000000" gradientUnits="userSpaceOnUse">
			<stop stop-color="#CAFF33"/>
			<stop offset="1.000000" stop-color="#CAFF33" stop-opacity="0.000000"/>
		</linearGradient>
		<linearGradient id="paint_linear_21_166_0" x1="39.000000" y1="-28.405399" x2="39.000000" y2="159.702698" gradientUnits="userSpaceOnUse">
			<stop stop-color="#CAFF33"/>
			<stop offset="0.467671" stop-color="#CAFF33" stop-opacity="0.000000"/>
		</linearGradient>
		<linearGradient id="paint_linear_21_166_1" x1="38.999985" y1="-90.716217" x2="38.999985" y2="120.513489" gradientUnits="userSpaceOnUse">
			<stop stop-color="#CAFF33"/>
			<stop offset="0.716291" stop-color="#CAFF33" stop-opacity="0.000000"/>
		</linearGradient>
	</defs>
	<rect id="Icon Container" rx="39.000000" width="78.000000" height="78.000000" fill="url(#paint_linear_21_165_0)" fill-opacity="0.050000"/>
	<rect id="Icon" rx="14.500000" width="57.000000" height="57.000000" transform="translate(10.500000 10.500000)" fill="url(#paint_linear_21_166_0)" fill-opacity="0.100000"/>
	<g clip-path="url(#clip101_136)">
		<path id="Subtract" d="M26.8125 27.75C26.8125 27.2322 27.2324 26.8125 27.75 26.8125L42.75 26.8125C43.2676 26.8125 43.6875 27.2322 43.6875 27.75C43.6875 28.2678 43.2676 28.6875 42.75 28.6875L42.75 51.1875L26.8125 51.1875C26.2949 51.1875 25.875 50.7678 25.875 50.25C25.875 49.7322 26.2949 49.3125 26.8125 49.3125L27.75 49.3125L27.75 28.6875C27.2324 28.6875 26.8125 28.2678 26.8125 27.75ZM32.4375 31.5C31.9199 31.5 31.5 31.9197 31.5 32.4375C31.5 32.9553 31.9199 33.375 32.4375 33.375L33.375 33.375C33.8926 33.375 34.3125 32.9553 34.3125 32.4375C34.3125 31.9197 33.8926 31.5 33.375 31.5L32.4375 31.5ZM36.1875 32.4375C36.1875 31.9197 36.6074 31.5 37.125 31.5L38.0625 31.5C38.5801 31.5 39 31.9197 39 32.4375C39 32.9553 38.5801 33.375 38.0625 33.375L37.125 33.375C36.6074 33.375 36.1875 32.9553 36.1875 32.4375ZM44.625 51.1875L44.625 32.4375L50.25 32.4375C50.7676 32.4375 51.1875 32.8572 51.1875 33.375C51.1875 33.8928 50.7676 34.3125 50.25 34.3125L50.25 49.3125L51.1875 49.3125C51.7051 49.3125 52.125 49.7322 52.125 50.25C52.125 50.7678 51.7051 51.1875 51.1875 51.1875L44.625 51.1875ZM31.5 36.1875C31.5 35.6697 31.9199 35.25 32.4375 35.25L33.375 35.25C33.8926 35.25 34.3125 35.6697 34.3125 36.1875C34.3125 36.7053 33.8926 37.125 33.375 37.125L32.4375 37.125C31.9199 37.125 31.5 36.7053 31.5 36.1875ZM37.125 35.25C36.6074 35.25 36.1875 35.6697 36.1875 36.1875C36.1875 36.7053 36.6074 37.125 37.125 37.125L38.0625 37.125C38.5801 37.125 39 36.7053 39 36.1875C39 35.6697 38.5801 35.25 38.0625 35.25L37.125 35.25ZM47.4375 37.125C46.9199 37.125 46.5 37.5447 46.5 38.0625L46.5 38.0719C46.5 38.5896 46.9199 39.0094 47.4375 39.0094L47.4468 39.0094C47.9648 39.0094 48.3843 38.5896 48.3843 38.0719L48.3843 38.0625C48.3843 37.5447 47.9648 37.125 47.4468 37.125L47.4375 37.125ZM32.4375 39C31.9199 39 31.5 39.4197 31.5 39.9375C31.5 40.4553 31.9199 40.875 32.4375 40.875L33.375 40.875C33.8926 40.875 34.3125 40.4553 34.3125 39.9375C34.3125 39.4197 33.8926 39 33.375 39L32.4375 39ZM36.1875 39.9375C36.1875 39.4197 36.6074 39 37.125 39L38.0625 39C38.5801 39 39 39.4197 39 39.9375C39 40.4553 38.5801 40.875 38.0625 40.875L37.125 40.875C36.6074 40.875 36.1875 40.4553 36.1875 39.9375ZM46.5 41.8125C46.5 41.2947 46.9199 40.875 47.4375 40.875L47.4468 40.875C47.9648 40.875 48.3843 41.2947 48.3843 41.8125L48.3843 41.8219C48.3843 42.3396 47.9648 42.7594 47.4468 42.7594L47.4375 42.7594C46.9199 42.7594 46.5 42.3396 46.5 41.8219L46.5 41.8125ZM32.4375 45.5625L32.4375 48.375C32.4375 48.8928 32.8574 49.3125 33.375 49.3125L37.125 49.3125C37.6426 49.3125 38.0625 48.8928 38.0625 48.375L38.0625 45.5625C38.0625 45.0447 37.6426 44.625 37.125 44.625L33.375 44.625C32.8574 44.625 32.4375 45.0447 32.4375 45.5625ZM47.4375 44.625C46.9199 44.625 46.5 45.0447 46.5 45.5625L46.5 45.5719C46.5 46.0896 46.9199 46.5094 47.4375 46.5094L47.4468 46.5094C47.9648 46.5094 48.3843 46.0896 48.3843 45.5719L48.3843 45.5625C48.3843 45.0447 47.9648 44.625 47.4468 44.625L47.4375 44.625Z" fill="#CAFF33" fill-opacity="1.000000" fill-rule="evenodd"/>
	</g>
	<rect id="Icon" rx="14.500000" width="57.000000" height="57.000000" transform="translate(10.500000 10.500000)" stroke="url(#paint_linear_21_166_1)" stroke-opacity="0.200000" stroke-width="1.000000"/>
</svg>
