<svg width="78.000000" height="78.000000" viewBox="0 0 78 78" fill="none" xmlns="http://www.w3.org/2000/svg" xmlns:xlink="http://www.w3.org/1999/xlink">
	<desc>
			Created with Pixso.
	</desc>
	<defs>
		<clipPath id="clip101_128">
			<rect id="Icon" width="30.000000" height="30.000000" transform="translate(24.000000 24.000000)" fill="white" fill-opacity="0"/>
		</clipPath>
		<linearGradient id="paint_linear_21_125_0" x1="39.000000" y1="0.000000" x2="39.000000" y2="78.000000" gradientUnits="userSpaceOnUse">
			<stop stop-color="#CAFF33"/>
			<stop offset="1.000000" stop-color="#CAFF33" stop-opacity="0.000000"/>
		</linearGradient>
		<linearGradient id="paint_linear_21_126_0" x1="39.000000" y1="-28.405399" x2="39.000000" y2="159.702698" gradientUnits="userSpaceOnUse">
			<stop stop-color="#CAFF33"/>
			<stop offset="0.467671" stop-color="#CAFF33" stop-opacity="0.000000"/>
		</linearGradient>
		<linearGradient id="paint_linear_21_126_1" x1="38.999985" y1="-90.716217" x2="38.999985" y2="120.513489" gradientUnits="userSpaceOnUse">
			<stop stop-color="#CAFF33"/>
			<stop offset="0.716291" stop-color="#CAFF33" stop-opacity="0.000000"/>
		</linearGradient>
	</defs>
	<rect id="Icon Container" rx="39.000000" width="78.000000" height="78.000000" fill="url(#paint_linear_21_125_0)" fill-opacity="0.050000"/>
	<rect id="Icon" rx="14.500000" width="57.000000" height="57.000000" transform="translate(10.500000 10.500000)" fill="url(#paint_linear_21_126_0)" fill-opacity="0.100000"/>
	<g clip-path="url(#clip101_128)">
		<path id="Union" d="M38.48 26.97C38.7949 26.76 39.2051 26.76 39.52 26.97L50.77 34.47C51.2012 34.7571 51.3174 35.3392 51.0303 35.77C50.7432 36.2009 50.1606 36.3173 49.73 36.03L39 28.8767L28.27 36.03C27.8394 36.3173 27.2573 36.2009 26.9702 35.77C26.6826 35.3392 26.7993 34.7571 27.23 34.47L38.48 26.97ZM40.4062 32.4375C40.4062 33.2142 39.7769 33.8438 39 33.8438C38.2231 33.8438 37.5938 33.2142 37.5938 32.4375C37.5938 31.6608 38.2231 31.0312 39 31.0312C39.7769 31.0312 40.4062 31.6608 40.4062 32.4375ZM49.3125 36.9156L49.3125 49.3125L50.25 49.3125C50.7676 49.3125 51.1875 49.7322 51.1875 50.25C51.1875 50.7678 50.7676 51.1875 50.25 51.1875L27.75 51.1875C27.2324 51.1875 26.8125 50.7678 26.8125 50.25C26.8125 49.7322 27.2324 49.3125 27.75 49.3125L28.6875 49.3125L28.6875 36.9156C28.6875 36.454 29.0234 36.061 29.4795 35.9894C32.582 35.5026 35.7617 35.25 39 35.25C42.2383 35.25 45.418 35.5026 48.5205 35.9894C48.9766 36.061 49.3125 36.454 49.3125 36.9156ZM35.25 39.9375C35.25 39.4197 34.8301 39 34.3125 39C33.7949 39 33.375 39.4197 33.375 39.9375L33.375 48.375C33.375 48.8928 33.7949 49.3125 34.3125 49.3125C34.8301 49.3125 35.25 48.8928 35.25 48.375L35.25 39.9375ZM39.9375 39.9375C39.9375 39.4197 39.5176 39 39 39C38.4824 39 38.0625 39.4197 38.0625 39.9375L38.0625 48.375C38.0625 48.8928 38.4824 49.3125 39 49.3125C39.5176 49.3125 39.9375 48.8928 39.9375 48.375L39.9375 39.9375ZM43.6875 39C44.2051 39 44.625 39.4197 44.625 39.9375L44.625 48.375C44.625 48.8928 44.2051 49.3125 43.6875 49.3125C43.1699 49.3125 42.75 48.8928 42.75 48.375L42.75 39.9375C42.75 39.4197 43.1699 39 43.6875 39Z" fill="#CAFF33" fill-opacity="1.000000" fill-rule="evenodd"/>
	</g>
	<rect id="Icon" rx="14.500000" width="57.000000" height="57.000000" transform="translate(10.500000 10.500000)" stroke="url(#paint_linear_21_126_1)" stroke-opacity="0.200000" stroke-width="1.000000"/>
</svg>
