<svg width="78.000000" height="78.000000" viewBox="0 0 78 78" fill="none" xmlns="http://www.w3.org/2000/svg" xmlns:xlink="http://www.w3.org/1999/xlink">
	<desc>
			Created with Pixso.
	</desc>
	<defs>
		<clipPath id="clip101_132">
			<rect id="Icon" width="30.000000" height="30.000000" transform="translate(24.000000 24.000000)" fill="white" fill-opacity="0"/>
		</clipPath>
		<linearGradient id="paint_linear_21_174_0" x1="39.000000" y1="0.000000" x2="39.000000" y2="78.000000" gradientUnits="userSpaceOnUse">
			<stop stop-color="#CAFF33"/>
			<stop offset="1.000000" stop-color="#CAFF33" stop-opacity="0.000000"/>
		</linearGradient>
		<linearGradient id="paint_linear_21_175_0" x1="39.000000" y1="-28.405399" x2="39.000000" y2="159.702698" gradientUnits="userSpaceOnUse">
			<stop stop-color="#CAFF33"/>
			<stop offset="0.467671" stop-color="#CAFF33" stop-opacity="0.000000"/>
		</linearGradient>
		<linearGradient id="paint_linear_21_175_1" x1="38.999985" y1="-90.716217" x2="38.999985" y2="120.513489" gradientUnits="userSpaceOnUse">
			<stop stop-color="#CAFF33"/>
			<stop offset="0.716291" stop-color="#CAFF33" stop-opacity="0.000000"/>
		</linearGradient>
	</defs>
	<rect id="Icon Container" rx="39.000000" width="78.000000" height="78.000000" fill="url(#paint_linear_21_174_0)" fill-opacity="0.050000"/>
	<rect id="Icon" rx="14.500000" width="57.000000" height="57.000000" transform="translate(10.500000 10.500000)" fill="url(#paint_linear_21_175_0)" fill-opacity="0.100000"/>
	<g clip-path="url(#clip101_132)">
		<path id="Union" d="M25.875 30.0938C25.875 28.7993 26.9243 27.75 28.2188 27.75L49.7812 27.75C51.0757 27.75 52.125 28.7993 52.125 30.0938L52.125 42.2812C52.125 43.5757 51.0757 44.625 49.7812 44.625L28.2188 44.625C26.9243 44.625 25.875 43.5757 25.875 42.2812L25.875 30.0938ZM34.3125 36.1875C34.3125 33.5987 36.4111 31.5 39 31.5C41.5889 31.5 43.6875 33.5987 43.6875 36.1875C43.6875 38.7763 41.5889 40.875 39 40.875C36.4111 40.875 34.3125 38.7763 34.3125 36.1875ZM39 33.375C37.4468 33.375 36.1875 34.6342 36.1875 36.1875C36.1875 37.7408 37.4468 39 39 39C40.5532 39 41.8125 37.7408 41.8125 36.1875C41.8125 34.6342 40.5532 33.375 39 33.375ZM29.625 36.1875C29.625 35.6697 30.0449 35.25 30.5625 35.25L30.5718 35.25C31.0898 35.25 31.5093 35.6697 31.5093 36.1875L31.5093 36.1969C31.5093 36.7146 31.0898 37.1344 30.5718 37.1344L30.5625 37.1344C30.0449 37.1344 29.625 36.7146 29.625 36.1969L29.625 36.1875ZM47.4375 35.25C46.9199 35.25 46.5 35.6697 46.5 36.1875L46.5 36.1969C46.5 36.7146 46.9199 37.1344 47.4375 37.1344L47.4468 37.1344C47.9648 37.1344 48.3843 36.7146 48.3843 36.1969L48.3843 36.1875C48.3843 35.6697 47.9648 35.25 47.4468 35.25L47.4375 35.25ZM25.875 47.4375C25.875 46.9197 26.2949 46.5 26.8125 46.5L48.375 46.5C48.8926 46.5 49.3125 46.9197 49.3125 47.4375L49.3125 48.6939C49.3125 50.271 47.8003 51.3737 46.312 50.9686C40.1001 49.2778 33.5625 48.375 26.8125 48.375C26.2949 48.375 25.875 47.9553 25.875 47.4375Z" fill="#CAFF33" fill-opacity="1.000000" fill-rule="evenodd"/>
	</g>
	<rect id="Icon" rx="14.500000" width="57.000000" height="57.000000" transform="translate(10.500000 10.500000)" stroke="url(#paint_linear_21_175_1)" stroke-opacity="0.200000" stroke-width="1.000000"/>
</svg>
