<svg width="78.000000" height="78.000000" viewBox="0 0 78 78" fill="none" xmlns="http://www.w3.org/2000/svg" xmlns:xlink="http://www.w3.org/1999/xlink">
	<desc>
			Created with Pixso.
	</desc>
	<defs>
		<clipPath id="clip101_97">
			<rect id="Frame" width="22.627651" height="28.000000" transform="translate(28.000000 25.000000)" fill="white" fill-opacity="0"/>
		</clipPath>
		<linearGradient id="paint_linear_21_75_0" x1="39.000000" y1="0.000000" x2="39.000000" y2="78.000000" gradientUnits="userSpaceOnUse">
			<stop stop-color="#CAFF33"/>
			<stop offset="1.000000" stop-color="#CAFF33" stop-opacity="0.000000"/>
		</linearGradient>
		<linearGradient id="paint_linear_21_76_0" x1="39.000000" y1="-28.405399" x2="39.000000" y2="159.702698" gradientUnits="userSpaceOnUse">
			<stop stop-color="#CAFF33"/>
			<stop offset="0.467671" stop-color="#CAFF33" stop-opacity="0.000000"/>
		</linearGradient>
		<linearGradient id="paint_linear_21_76_1" x1="38.999985" y1="-90.716217" x2="38.999985" y2="120.513489" gradientUnits="userSpaceOnUse">
			<stop stop-color="#CAFF33"/>
			<stop offset="0.716291" stop-color="#CAFF33" stop-opacity="0.000000"/>
		</linearGradient>
	</defs>
	<rect id="Icon Container" rx="39.000000" width="78.000000" height="78.000000" fill="url(#paint_linear_21_75_0)" fill-opacity="0.050000"/>
	<rect id="Icon" rx="14.500000" width="57.000000" height="57.000000" transform="translate(10.500000 10.500000)" fill="url(#paint_linear_21_76_0)" fill-opacity="0.100000"/>
	<rect id="Frame" width="22.627651" height="28.000000" transform="translate(28.000000 25.000000)" fill="#FFFFFF" fill-opacity="0"/>
	<g clip-path="url(#clip101_97)">
		<path id="Vector" d="M41.6919 30.8782C41.7246 30.9166 41.7305 30.9276 41.7358 30.9276C42.2803 31.0046 42.5332 31.4115 42.8247 31.8185C43.1602 32.2804 43.5615 32.7037 43.9902 33.0886C45.1177 34.106 45.8105 35.3376 46.0415 36.8389C46.4429 39.4673 44.936 42.1672 42.4619 43.2175C38.7061 44.8121 34.5103 42.3872 34.0762 38.329C33.8452 36.168 34.6367 34.3809 36.2866 32.9731C36.8198 32.5168 37.2651 31.9889 37.6338 31.3895C37.6997 31.2795 37.8208 31.1915 37.936 31.1366C38.123 31.0486 38.332 30.9991 38.5684 30.9166C38.4917 30.8231 38.4365 30.7572 38.376 30.6912C38.0078 30.3118 37.6392 29.9214 37.2651 29.553C37.1333 29.421 37.0728 29.2834 37.0781 29.0966C37.0894 28.3157 37.084 27.5404 37.084 26.7595C37.084 26.446 37.4688 25.9457 37.7822 25.8853C38.1396 25.8137 38.5078 25.7753 38.8652 25.7037C38.9697 25.6818 39.0854 25.6157 39.146 25.5333C39.6685 24.8295 40.5864 24.824 41.1035 25.5223C41.1748 25.6157 41.3125 25.6873 41.4277 25.7147C41.7578 25.7863 42.0933 25.8247 42.4287 25.8853C42.7642 25.9512 43.1216 26.3856 43.1216 26.7266C43.1216 27.5128 43.1162 28.3047 43.127 29.0911C43.1323 29.2944 43.0664 29.432 42.9292 29.575C42.5112 29.9983 42.1099 30.4327 41.6919 30.8782ZM39.3823 33.941C39.3657 34.007 39.3491 34.0455 39.355 34.0785C39.4263 34.4469 39.2559 34.6063 38.915 34.7438C38.2661 35.0133 37.9746 35.5576 37.9912 36.256C38.0078 36.9489 38.3813 37.3777 39.0083 37.6032C39.2832 37.7022 39.5693 37.7737 39.8442 37.8671C40.0972 37.9496 40.3501 38.0321 40.5923 38.1311C40.7954 38.2136 40.9111 38.373 40.8892 38.604C40.8672 38.8405 40.7188 38.9779 40.5098 39.0164C40.2949 39.0604 40.064 39.0989 39.8608 39.0494C39.4648 38.9559 39.0854 38.7964 38.6675 38.6535C38.4805 38.9009 38.2661 39.1814 38.0078 39.5278C38.3979 39.6982 38.7334 39.8742 39.0908 39.9952C39.2944 40.0612 39.377 40.1492 39.3491 40.3581C39.333 40.5066 39.3438 40.6606 39.3438 40.831C39.6572 40.831 39.9214 40.831 40.1851 40.831C40.5645 40.831 40.5811 40.831 40.5591 40.4406C40.5479 40.1987 40.603 40.0667 40.8672 40.0337C41.0044 40.0172 41.1421 39.9402 41.2686 39.8687C41.8511 39.5498 42.0933 39.0384 42.082 38.3895C42.0713 37.7737 41.7632 37.3503 41.2134 37.1028C40.9658 36.9929 40.7021 36.9103 40.438 36.8224C40.1084 36.7124 39.7783 36.6134 39.4482 36.4924C39.2446 36.4155 39.1626 36.2505 39.1787 36.0305C39.1953 35.8215 39.3218 35.6786 39.5142 35.6456C39.7451 35.6072 39.9927 35.5851 40.2183 35.6237C40.4932 35.6731 40.7515 35.7996 41.043 35.8986C41.2246 35.6182 41.4116 35.3212 41.6313 34.9747C41.3784 34.8593 41.1641 34.7163 40.9331 34.6779C40.6084 34.6228 40.5098 34.4744 40.5479 34.1665C40.5591 34.095 40.46 33.952 40.3994 33.9465C40.0698 33.9301 39.7231 33.941 39.3823 33.941Z" fill="#CAFF33" fill-opacity="1.000000" fill-rule="nonzero"/>
		<path id="Vector" d="M39.6797 52.989C38.5083 52.989 37.3315 52.956 36.1602 53C35.374 53.0275 34.7031 52.7911 34.0708 52.3732C33.1743 51.7737 32.355 51.0919 31.6401 50.2781C30.5845 49.0739 29.5176 47.8696 28.4619 46.6653C27.5986 45.6756 27.9888 44.2129 29.2207 43.8115C29.3638 43.762 29.5288 43.7455 29.6772 43.7455C30.6558 43.74 31.6401 43.7345 32.6191 43.751C32.7563 43.751 32.9214 43.8224 33.0205 43.916C33.6914 44.5648 34.3511 45.2302 35.0054 45.8955C35.1372 46.0275 35.2583 46.055 35.4453 46.0275C35.8413 45.967 36.248 45.912 36.6494 45.912C38.5029 45.901 40.3501 45.9066 42.2036 45.9066C42.8359 45.9066 43.3032 46.231 43.4683 46.7698C43.7212 47.5837 43.1274 48.348 42.2197 48.3535C40.9937 48.359 39.7617 48.3535 38.5356 48.3535C38.3159 48.3535 38.0957 48.348 37.876 48.3535C37.48 48.3645 37.2217 48.6174 37.2158 48.9749C37.2158 49.3378 37.4746 49.6127 37.8647 49.6127C39.8169 49.6182 41.769 49.6182 43.7212 49.6127C44.1172 49.6127 44.4028 49.3928 44.6777 49.1288C45.9536 47.9026 47.2295 46.6763 48.5107 45.4556C49.0327 44.9552 49.7256 44.9332 50.2207 45.3787C50.7539 45.8625 50.7651 46.6434 50.2261 47.1877C49.6597 47.7651 49.0825 48.3095 48.5107 48.8649C47.2456 50.0911 45.981 51.3119 44.7217 52.5381C44.4141 52.835 44.0732 52.989 43.6387 52.989C42.3188 52.9835 40.999 52.989 39.6797 52.989Z" fill="#CAFF33" fill-opacity="1.000000" fill-rule="nonzero"/>
		<path id="Vector" d="M33.1357 29.751C33.6689 30.2843 34.2026 30.8177 34.7251 31.3401C34.4004 31.6646 34.0596 32.0055 33.7188 32.3409C33.2129 31.8185 32.6792 31.2687 32.168 30.7407C32.4702 30.4329 32.8115 30.0809 33.1357 29.751Z" fill="#CAFF33" fill-opacity="1.000000" fill-rule="nonzero"/>
		<path id="Vector" d="M47.0205 29.751C47.3447 30.0754 47.6802 30.4219 47.9937 30.7352C47.4712 31.2577 46.9268 31.802 46.3989 32.3245C46.0801 32.0055 45.7446 31.6591 45.4092 31.3236C45.9316 30.8123 46.4702 30.2843 47.0205 29.751Z" fill="#CAFF33" fill-opacity="1.000000" fill-rule="nonzero"/>
		<path id="Vector" d="M48.2852 38.4171C48.2852 37.9497 48.2798 37.5208 48.2905 37.0919C48.2905 37.0369 48.395 36.9379 48.4502 36.9379C49.1211 36.9269 49.7861 36.9269 50.457 36.9379C50.5122 36.9379 50.6167 37.0204 50.6167 37.0644C50.6274 37.5098 50.6221 37.9552 50.6221 38.4171C49.8359 38.4171 49.0767 38.4171 48.2852 38.4171Z" fill="#CAFF33" fill-opacity="1.000000" fill-rule="nonzero"/>
		<path id="Vector" d="M31.8545 38.4336C31.0957 38.4336 30.3862 38.4391 29.6714 38.4281C29.6167 38.4281 29.5288 38.3236 29.5229 38.2631C29.5122 37.8782 29.5068 37.4933 29.5229 37.1084C29.5229 37.0479 29.6333 36.9379 29.6934 36.9379C30.3535 36.9269 31.0132 36.9269 31.6733 36.9379C31.7334 36.9379 31.8438 37.0259 31.8438 37.0809C31.8599 37.5098 31.8545 37.9497 31.8545 38.4336Z" fill="#CAFF33" fill-opacity="1.000000" fill-rule="nonzero"/>
	</g>
	<rect id="Icon" rx="14.500000" width="57.000000" height="57.000000" transform="translate(10.500000 10.500000)" stroke="url(#paint_linear_21_76_1)" stroke-opacity="0.200000" stroke-width="1.000000"/>
</svg>
