<svg width="78.000000" height="78.000000" viewBox="0 0 78 78" fill="none" xmlns="http://www.w3.org/2000/svg" xmlns:xlink="http://www.w3.org/1999/xlink">
	<desc>
			Created with Pixso.
	</desc>
	<defs>
		<clipPath id="clip101_138">
			<rect id="Icon" width="30.000000" height="30.000000" transform="translate(24.000000 24.000000)" fill="white" fill-opacity="0"/>
		</clipPath>
		<linearGradient id="paint_linear_21_184_0" x1="39.000000" y1="0.000000" x2="39.000000" y2="78.000000" gradientUnits="userSpaceOnUse">
			<stop stop-color="#CAFF33"/>
			<stop offset="1.000000" stop-color="#CAFF33" stop-opacity="0.000000"/>
		</linearGradient>
		<linearGradient id="paint_linear_21_185_0" x1="39.000000" y1="-28.405399" x2="39.000000" y2="159.702698" gradientUnits="userSpaceOnUse">
			<stop stop-color="#CAFF33"/>
			<stop offset="0.467671" stop-color="#CAFF33" stop-opacity="0.000000"/>
		</linearGradient>
		<linearGradient id="paint_linear_21_185_1" x1="38.999985" y1="-90.716217" x2="38.999985" y2="120.513489" gradientUnits="userSpaceOnUse">
			<stop stop-color="#CAFF33"/>
			<stop offset="0.716291" stop-color="#CAFF33" stop-opacity="0.000000"/>
		</linearGradient>
	</defs>
	<rect id="Icon Container" rx="39.000000" width="78.000000" height="78.000000" fill="url(#paint_linear_21_184_0)" fill-opacity="0.050000"/>
	<rect id="Icon" rx="14.500000" width="57.000000" height="57.000000" transform="translate(10.500000 10.500000)" fill="url(#paint_linear_21_185_0)" fill-opacity="0.100000"/>
	<g clip-path="url(#clip101_138)">
		<path id="Subtract" d="M26.8125 26.8125C26.2949 26.8125 25.875 27.2322 25.875 27.75C25.875 28.2678 26.2949 28.6875 26.8125 28.6875L27.75 28.6875L27.75 41.8125C27.75 43.8836 29.4287 45.5625 31.5 45.5625L33.0117 45.5625L31.5483 49.9535C31.3843 50.4447 31.6499 50.9757 32.1411 51.1394C32.6323 51.3031 33.1631 51.0377 33.3267 50.5465L33.7383 49.3125L44.2617 49.3125L44.6733 50.5465C44.8369 51.0377 45.3677 51.3031 45.8589 51.1394C46.3501 50.9757 46.6157 50.4447 46.4517 49.9535L44.9883 45.5625L46.5 45.5625C48.5713 45.5625 50.25 43.8836 50.25 41.8125L50.25 28.6875L51.1875 28.6875C51.7051 28.6875 52.125 28.2678 52.125 27.75C52.125 27.2322 51.7051 26.8125 51.1875 26.8125L26.8125 26.8125ZM34.3633 47.4375L34.9883 45.5625L43.0117 45.5625L43.6367 47.4375L34.3633 47.4375ZM43.6875 32.4375C43.6875 31.9197 43.2676 31.5 42.75 31.5C42.2324 31.5 41.8125 31.9197 41.8125 32.4375L41.8125 39.9375C41.8125 40.4553 42.2324 40.875 42.75 40.875C43.2676 40.875 43.6875 40.4553 43.6875 39.9375L43.6875 32.4375ZM39.9375 35.25C39.9375 34.7322 39.5176 34.3125 39 34.3125C38.4824 34.3125 38.0625 34.7322 38.0625 35.25L38.0625 39.9375C38.0625 40.4553 38.4824 40.875 39 40.875C39.5176 40.875 39.9375 40.4553 39.9375 39.9375L39.9375 35.25ZM36.1875 38.0625C36.1875 37.5447 35.7676 37.125 35.25 37.125C34.7324 37.125 34.3125 37.5447 34.3125 38.0625L34.3125 39.9375C34.3125 40.4553 34.7324 40.875 35.25 40.875C35.7676 40.875 36.1875 40.4553 36.1875 39.9375L36.1875 38.0625Z" fill="#CAFF33" fill-opacity="1.000000" fill-rule="evenodd"/>
	</g>
	<rect id="Icon" rx="14.500000" width="57.000000" height="57.000000" transform="translate(10.500000 10.500000)" stroke="url(#paint_linear_21_185_1)" stroke-opacity="0.200000" stroke-width="1.000000"/>
</svg>
