<svg width="78.000000" height="78.000000" viewBox="0 0 78 78" fill="none" xmlns="http://www.w3.org/2000/svg" xmlns:xlink="http://www.w3.org/1999/xlink">
	<desc>
			Created with Pixso.
	</desc>
	<defs>
		<clipPath id="clip101_134">
			<rect id="Icon" width="30.000000" height="30.000000" transform="translate(24.000000 24.000000)" fill="white" fill-opacity="0"/>
		</clipPath>
		<linearGradient id="paint_linear_21_193_0" x1="39.000000" y1="0.000000" x2="39.000000" y2="78.000000" gradientUnits="userSpaceOnUse">
			<stop stop-color="#CAFF33"/>
			<stop offset="1.000000" stop-color="#CAFF33" stop-opacity="0.000000"/>
		</linearGradient>
		<linearGradient id="paint_linear_21_194_0" x1="39.000000" y1="-28.405399" x2="39.000000" y2="159.702698" gradientUnits="userSpaceOnUse">
			<stop stop-color="#CAFF33"/>
			<stop offset="0.467671" stop-color="#CAFF33" stop-opacity="0.000000"/>
		</linearGradient>
		<linearGradient id="paint_linear_21_194_1" x1="38.999985" y1="-90.716217" x2="38.999985" y2="120.513489" gradientUnits="userSpaceOnUse">
			<stop stop-color="#CAFF33"/>
			<stop offset="0.716291" stop-color="#CAFF33" stop-opacity="0.000000"/>
		</linearGradient>
	</defs>
	<rect id="Icon Container" rx="39.000000" width="78.000000" height="78.000000" fill="url(#paint_linear_21_193_0)" fill-opacity="0.050000"/>
	<rect id="Icon" rx="14.500000" width="57.000000" height="57.000000" transform="translate(10.500000 10.500000)" fill="url(#paint_linear_21_194_0)" fill-opacity="0.100000"/>
	<g clip-path="url(#clip101_134)">
		<path id="Subtract" d="M26.8125 39C26.8125 32.269 32.269 26.8125 39 26.8125C45.731 26.8125 51.1875 32.269 51.1875 39C51.1875 45.731 45.731 51.1875 39 51.1875C32.269 51.1875 26.8125 45.731 26.8125 39ZM39 30.5625C39.5176 30.5625 39.9375 30.9822 39.9375 31.5L39.9375 32.5196C40.7212 32.6585 41.4683 32.9735 42.0864 33.4647L42.605 33.8767C43.0103 34.1987 43.0781 34.7885 42.7559 35.1939C42.4341 35.5993 41.8442 35.6669 41.439 35.3448L40.9199 34.9328C40.6362 34.7073 40.2988 34.5432 39.9375 34.4407L39.9375 38.137C40.7524 38.2679 41.5479 38.5738 42.2144 39.0737C43.1455 39.7723 43.6875 40.7543 43.6875 41.8125C43.6875 42.8706 43.1455 43.8527 42.2144 44.5512C41.5479 45.0511 40.7524 45.357 39.9375 45.4879L39.9375 46.5C39.9375 47.0178 39.5176 47.4375 39 47.4375C38.4824 47.4375 38.0625 47.0178 38.0625 46.5L38.0625 45.4879C37.2476 45.357 36.4526 45.0511 35.7861 44.5512L34.6875 43.7272C34.2734 43.4165 34.1895 42.8289 34.5 42.4147C34.8105 42.0005 35.3984 41.9166 35.8125 42.2272L36.9111 43.0512C37.2329 43.2926 37.6284 43.4714 38.0625 43.577L38.0625 39.8554C37.291 39.7188 36.5415 39.4092 35.9131 38.9103C35.0229 38.2029 34.522 37.2234 34.522 36.1875C34.522 35.1516 35.0229 34.1721 35.9131 33.4647C36.5317 32.9734 37.2788 32.6584 38.0625 32.5195L38.0625 31.5C38.0625 30.9822 38.4824 30.5625 39 30.5625ZM37.0796 34.9328C37.3633 34.7072 37.7007 34.5431 38.0625 34.4406L38.0625 37.9343C37.6938 37.8297 37.3574 37.663 37.0796 37.4422C36.5874 37.0512 36.397 36.5912 36.397 36.1875C36.397 35.7838 36.5874 35.3238 37.0796 34.9328ZM39.9375 43.577L39.9375 40.0479C40.3716 40.1535 40.7671 40.3322 41.0894 40.5737C41.6221 40.9735 41.8125 41.4311 41.8125 41.8125C41.8125 42.1939 41.6221 42.6514 41.0894 43.0512C40.7671 43.2927 40.3716 43.4715 39.9375 43.577Z" fill="#CAFF33" fill-opacity="1.000000" fill-rule="evenodd"/>
	</g>
	<rect id="Icon" rx="14.500000" width="57.000000" height="57.000000" transform="translate(10.500000 10.500000)" stroke="url(#paint_linear_21_194_1)" stroke-opacity="0.200000" stroke-width="1.000000"/>
</svg>
