<svg width="60.000000" height="60.000000" viewBox="0 0 60 60" fill="none" xmlns="http://www.w3.org/2000/svg" xmlns:xlink="http://www.w3.org/1999/xlink">
	<desc>
			Created with Pixso.
	</desc>
	<defs>
		<clipPath id="clip11_89096">
			<rect id="Icon" width="60.000000" height="60.000000" fill="white" fill-opacity="0"/>
		</clipPath>
		<linearGradient id="paint_linear_11_89097_0" x1="30.206362" y1="11.000000" x2="30.206362" y2="49.823540" gradientUnits="userSpaceOnUse">
			<stop stop-color="#CAFF33"/>
			<stop offset="1.000000" stop-color="#191919"/>
		</linearGradient>
	</defs>
	<g clip-path="url(#clip11_89096)">
		<path id="Text" d="M7.50049 49.8235C6.396 49.8235 5.50049 48.9282 5.50049 47.8235L5.50049 38.7156C5.50049 35.521 6.0835 32.1995 7.25 28.751C8.45166 25.2661 10.0776 21.981 12.1274 18.8955C13.9058 16.2332 15.8638 13.9275 18.002 11.978C18.6553 11.3823 19.6299 11.3359 20.3657 11.8262L26.3926 15.8423C27.3022 16.4485 27.5537 17.6709 26.9907 18.6082C25.3579 21.3267 23.9556 24.145 22.7842 27.063C21.4058 30.5479 20.7339 34.3958 20.7695 38.6067L20.7695 47.8235C20.7695 48.9282 19.874 49.8235 18.7695 49.8235L7.50049 49.8235ZM34.3799 49.8235C33.2754 49.8235 32.3799 48.9282 32.3799 47.8235L32.3799 38.7156C32.3799 35.521 32.9634 32.1995 34.1294 28.751C35.3315 25.2661 36.957 21.981 39.0073 18.8955C40.7856 16.2332 42.7437 13.9275 44.8818 11.978C45.5352 11.3823 46.5098 11.3359 47.2451 11.8262L53.272 15.8423C54.1816 16.4485 54.4331 17.6709 53.8701 18.6082C52.2373 21.3267 50.835 24.145 49.6636 27.063C48.2852 30.5479 47.6138 34.3958 47.6489 38.6067L47.6489 47.8235C47.6489 48.9282 46.7534 49.8235 45.6489 49.8235L34.3799 49.8235Z" fill="url(#paint_linear_11_89097_0)" fill-opacity="1.000000" fill-rule="nonzero"/>
		<path id="Text" d="M6.30273 28.4307Q4.50049 33.7593 4.50049 38.7156L4.50049 47.8235Q4.50049 49.3235 5.25049 50.0735Q6.00049 50.8235 7.50049 50.8235L18.7695 50.8235Q20.2695 50.8235 21.0195 50.0735Q21.7695 49.3235 21.7695 47.8235L21.7695 38.5981Q21.7178 32.4768 23.7119 27.4355Q23.9878 26.749 24.2808 26.0701Q25.8237 22.4929 27.8481 19.123Q28.6104 17.8538 28.3706 16.8159Q28.1362 15.8027 26.9468 15.01L20.9204 10.9941Q19.9355 10.3379 19.0161 10.4192Q18.1426 10.4966 17.3281 11.2393Q14.0312 14.2454 11.2944 18.342Q9.53711 20.9871 8.18555 23.8254Q7.11768 26.0676 6.30273 28.4307ZM33.1821 28.4307Q31.3799 33.7593 31.3799 38.7156L31.3799 47.8235Q31.3799 49.3235 32.1299 50.0735Q32.8799 50.8235 34.3799 50.8235L45.6489 50.8235Q47.1489 50.8235 47.8989 50.0735Q48.6489 49.3235 48.6489 47.8235L48.6489 38.5981Q48.5977 32.4768 50.5918 27.4355Q50.8652 26.7539 51.1562 26.0796Q52.7007 22.4973 54.7275 19.123Q55.4897 17.8538 55.25 16.8159Q55.0161 15.8027 53.8267 15.01L47.7998 10.9941Q46.8154 10.3379 45.8955 10.4192Q45.0225 10.4966 44.208 11.2393Q40.9106 14.2454 38.1743 18.342Q36.4175 20.9866 35.0654 23.8242Q33.9976 26.0671 33.1821 28.4307ZM34.3799 49.8235C33.2754 49.8235 32.3799 48.9282 32.3799 47.8235L32.3799 38.7156C32.3799 35.521 32.9634 32.1995 34.1294 28.751Q34.8926 26.5378 35.8838 24.4321L35.8838 24.4321L35.8843 24.4321Q37.2339 21.5642 39.0073 18.8955C40.7856 16.2332 42.7437 13.9275 44.8818 11.978C45.5352 11.3823 46.5098 11.3359 47.2451 11.8262L53.272 15.8423C54.1816 16.4485 54.4331 17.6709 53.8701 18.6082C52.2373 21.3267 50.835 24.145 49.6636 27.063C48.2852 30.5479 47.6138 34.3958 47.6489 38.6067L47.6489 47.8235C47.6489 48.9282 46.7534 49.8235 45.6489 49.8235L34.3799 49.8235ZM7.50049 49.8235C6.396 49.8235 5.50049 48.9282 5.50049 47.8235L5.50049 38.7156Q5.50049 33.9238 7.25 28.751Q8.01318 26.5378 9.00439 24.4321L9.00439 24.4321L9.00439 24.4321Q10.3545 21.5642 12.1274 18.8955Q14.7949 14.9021 18.002 11.978C18.6553 11.3823 19.6299 11.3359 20.3657 11.8262L26.3926 15.8423C27.3022 16.4485 27.5537 17.6709 26.9907 18.6082Q24.9453 22.0134 23.3823 25.6274L23.3823 25.6277Q23.0737 26.3413 22.7842 27.063Q20.7163 32.2903 20.7695 38.6067L20.7695 47.8235C20.7695 48.9282 19.874 49.8235 18.7695 49.8235L7.50049 49.8235Z" fill="#CAFF33" fill-opacity="1.000000" fill-rule="evenodd"/>
	</g>
</svg>
