<svg width="22.286133" height="18.857117" viewBox="0 0 22.2861 18.8571" fill="none" xmlns="http://www.w3.org/2000/svg" xmlns:xlink="http://www.w3.org/1999/xlink">
	<desc>
			Created with Pixso.
	</desc>
	<defs/>
	<g opacity="0.000000">
		<path id="Vector" d="M0 0L22.2861 0L22.2861 18.8571L0 18.8571L0 0Z" fill="#B3B3B3" fill-opacity="1.000000" fill-rule="evenodd"/>
	</g>
	<path id="Vector" d="M9.64551 12.3802C8.97168 12.3802 8.57715 12.0009 8.57715 11.3201L8.57715 10.5323C5.74707 10.3378 2.92676 9.75433 0 8.63593L0 7.03131C3.60059 8.62622 7.20996 9.19025 11.1377 9.19025C15.0752 9.19025 18.6855 8.62622 22.2861 7.03131L22.2861 8.63593C19.3594 9.75433 16.5391 10.3378 13.708 10.5323L13.708 11.3201C13.708 12.0009 13.3135 12.3802 12.6396 12.3802L9.64551 12.3802ZM2.97461 18.8474L19.3115 18.8474C21.3037 18.8474 22.2861 17.8749 22.2861 15.8812L22.2861 6.41864C22.2861 4.42493 21.3037 3.45245 19.3115 3.45245L2.97461 3.45245C0.991211 3.45245 0 4.42493 0 6.41864L0 15.8812C0 17.8749 0.991211 18.8474 2.97461 18.8474ZM6.25781 4.29852L7.74902 4.29852L7.74902 2.57715C7.74902 1.83807 8.18262 1.41986 8.93359 1.41986L13.3525 1.41986C14.1035 1.41986 14.5264 1.83807 14.5264 2.57715L14.5264 4.27905L16.0186 4.27905L16.0186 2.68414C16.0186 0.855835 15.0654 0 13.3232 0L8.95312 0C7.30664 0 6.25781 0.855835 6.25781 2.68414L6.25781 4.29852Z" fill="#B3B3B3" fill-opacity="1.000000" fill-rule="nonzero"/>
</svg>
