<svg width="34.681641" height="34.681641" viewBox="0 0 34.6816 34.6816" fill="none" xmlns="http://www.w3.org/2000/svg" xmlns:xlink="http://www.w3.org/1999/xlink">
	<desc>
			Created with Pixso.
	</desc>
	<defs/>
	<path id="Shape" d="M34.1611 21.5359C31.8452 30.8257 22.4355 36.4788 13.1445 34.1626C3.85791 31.8464 -1.79541 22.437 0.520996 13.1479C2.83594 3.85693 12.2451 -1.79712 21.5332 0.518799C30.8237 2.83496 36.4766 12.2456 34.1606 21.5359L34.1611 21.5359Z" fill="#262626" fill-opacity="1.000000" fill-rule="evenodd"/>
	<path id="Shape" d="M19.9761 12.3577C21.6055 12.9189 22.7974 13.7605 22.5635 15.3257L22.563 15.3257C22.3936 16.4717 21.7583 17.0264 20.915 17.2214C22.0732 17.8247 22.6621 18.7493 22.1006 20.3521C21.4048 22.3425 19.7495 22.5105 17.5483 22.094L17.0142 24.2346L15.7236 23.9128L16.251 21.801C15.9165 21.7178 15.5742 21.6296 15.2227 21.5339L14.6934 23.656L13.4038 23.3342L13.938 21.1892C13.6372 21.1121 13.3311 21.03 13.0186 20.9517L11.3384 20.533L11.979 19.0552C11.979 19.0552 12.9302 19.3081 12.9175 19.2893C13.2827 19.3799 13.4448 19.1416 13.5088 18.9827L14.353 15.5989L14.4893 15.6328C14.438 15.6121 14.3911 15.5989 14.355 15.5896L14.957 13.1741C14.9731 12.8999 14.8784 12.554 14.356 12.4233C14.376 12.4099 13.4185 12.1904 13.4185 12.1904L13.7617 10.8118L15.5415 11.2563L15.54 11.2629C15.8076 11.3293 16.0835 11.3926 16.3643 11.4565L16.8936 9.33691L18.1836 9.65869L17.665 11.7368C18.0112 11.8157 18.3599 11.8955 18.6987 11.98L19.2134 9.91553L20.5044 10.2373L19.9761 12.3577ZM16.8857 15.894C17.7642 16.1284 19.6787 16.6392 20.0127 15.303C20.3535 13.9358 18.4917 13.5237 17.582 13.3225C17.48 13.2998 17.3896 13.2798 17.3159 13.2615L16.6733 15.8384C16.7344 15.8538 16.8057 15.8728 16.8857 15.894ZM19.6143 19.4614C19.2476 20.9324 16.9443 20.3237 15.8916 20.0454C15.7974 20.0205 15.7134 19.9983 15.6411 19.9805L16.3501 17.1392C16.438 17.1611 16.5454 17.1851 16.667 17.2124C17.7563 17.4568 19.9883 17.9578 19.6143 19.4614L19.6143 19.4614Z" clip-rule="evenodd" fill="#CAFF33" fill-opacity="1.000000" fill-rule="evenodd"/>
</svg>
