<svg width="34.681641" height="34.681396" viewBox="0 0 34.6816 34.6814" fill="none" xmlns="http://www.w3.org/2000/svg" xmlns:xlink="http://www.w3.org/1999/xlink">
	<desc>
			Created with Pixso.
	</desc>
	<defs/>
	<path id="Oval" d="M17.3408 34.6814C26.918 34.6814 34.6816 26.9177 34.6816 17.3408C34.6816 7.76367 26.918 0 17.3408 0C7.76367 0 0 7.76367 0 17.3408C0 26.9177 7.76367 34.6814 17.3408 34.6814Z" fill="#262626" fill-opacity="1.000000" fill-rule="evenodd"/>
	<path id="Shape" d="M15.8213 9.3374C16.7734 9.3374 17.7227 9.3374 18.6748 9.3374C18.6187 9.98169 18.5596 10.6294 18.5068 11.2737C19.6167 11.3542 20.6987 11.7112 21.6719 12.24C21.252 13.2974 20.8281 14.3547 20.4043 15.4121C19.5854 14.7153 18.5068 14.3303 17.4321 14.3442C17.1621 14.3513 16.8823 14.4038 16.6582 14.5579C16.5112 14.6594 16.4023 14.8169 16.3711 14.9919C16.3467 15.1321 16.3535 15.2896 16.4307 15.4158C16.5181 15.5557 16.6724 15.6396 16.8262 15.6924C17.1411 15.8042 17.481 15.8113 17.8101 15.8464C18.584 15.9409 19.3613 16.074 20.0928 16.3506C20.6602 16.5676 21.2026 16.8933 21.5913 17.3694C21.959 17.8071 22.1729 18.3604 22.2534 18.9275C22.3477 19.5823 22.3198 20.2615 22.1167 20.8987C21.959 21.4099 21.6895 21.886 21.3394 22.2888C20.6147 23.1292 19.5503 23.6333 18.458 23.7627C18.4927 24.4526 18.5347 25.1389 18.5732 25.8286C17.6699 25.8286 16.77 25.8286 15.8701 25.8286C15.9053 25.1458 15.9507 24.4631 15.9824 23.7803C15.2578 23.7559 14.54 23.5947 13.8643 23.3391C13.2095 23.0906 12.5859 22.7615 12.0049 22.3762C12.4321 21.2769 12.8594 20.1775 13.29 19.0745C13.7764 19.4841 14.2949 19.8657 14.8618 20.1565C15.4712 20.468 16.147 20.6677 16.833 20.6746C17.1587 20.6782 17.4951 20.6606 17.8032 20.5486C17.9922 20.4785 18.1777 20.356 18.2617 20.1633C18.3491 19.9604 18.3423 19.7048 18.209 19.5227C18.1147 19.4001 17.9814 19.3162 17.8418 19.2566C17.6523 19.1797 17.4565 19.1375 17.2568 19.106C16.5215 18.9871 15.7827 18.8889 15.0723 18.658C14.5015 18.4724 13.9448 18.2131 13.4893 17.814C13.2021 17.5654 12.9644 17.2607 12.7964 16.9177C12.5439 16.4065 12.4497 15.8289 12.4565 15.2617C12.4565 14.6279 12.5859 13.9836 12.9014 13.427C13.1743 12.9297 13.5908 12.5237 14.0601 12.2119C14.6274 11.8374 15.2612 11.5818 15.9053 11.3752C15.8774 10.6958 15.8491 10.0166 15.8213 9.3374Z" fill="#CAFF33" fill-opacity="1.000000" fill-rule="evenodd"/>
</svg>
