<svg width="34.681641" height="34.681396" viewBox="0 0 34.6816 34.6814" fill="none" xmlns="http://www.w3.org/2000/svg" xmlns:xlink="http://www.w3.org/1999/xlink">
	<desc>
			Created with Pixso.
	</desc>
	<defs/>
	<path id="Shape" d="M34.5874 17.3411C34.5874 26.8677 26.8647 34.5906 17.3384 34.5906C7.81152 34.5906 0.0888672 26.8677 0.0888672 17.3411C0.0888672 7.81445 7.81152 0.0917969 17.3384 0.0917969C26.8647 0.0917969 34.5874 7.81445 34.5874 17.3411Z" fill="#262626" fill-opacity="1.000000" fill-rule="evenodd"/>
	<path id="Shape" d="M22.1855 24.5486L21.7876 22.741C21.7651 22.6348 21.7085 22.5552 21.6172 22.5024C21.5186 22.4492 21.4199 22.4419 21.3218 22.4797L21.2646 22.5024L21.1284 22.5364C21.0674 22.5513 20.9976 22.5686 20.918 22.5874C20.8384 22.6064 20.7456 22.6252 20.6392 22.6443C20.5337 22.6633 20.4214 22.6804 20.3042 22.6956C20.1865 22.7104 20.0601 22.7239 19.9233 22.7354C19.7866 22.7466 19.6504 22.7522 19.5142 22.7522C18.5513 22.7522 17.6855 22.4927 16.9165 21.9736C16.147 21.4543 15.5806 20.7515 15.2168 19.8647L19.6162 19.8647C19.6997 19.8647 19.7754 19.8364 19.8433 19.7795C19.9116 19.7229 19.9536 19.6528 19.9683 19.5691L20.2412 18.2959C20.2642 18.1824 20.2412 18.0801 20.1733 17.989C20.0977 17.8979 20.0024 17.8525 19.8892 17.8525L14.6714 17.8525C14.6484 17.3372 14.6484 16.9392 14.6714 16.6587L20.2188 16.6587C20.4238 16.6587 20.5449 16.5603 20.5825 16.3633L20.8555 15.0674C20.8779 14.9612 20.8521 14.8628 20.7759 14.7717C20.708 14.6809 20.6133 14.6353 20.4917 14.6353L15.1714 14.6353C15.5503 13.7864 16.1187 13.1194 16.8765 12.6343C17.6348 12.1492 18.4912 11.9067 19.4458 11.9067C19.4766 11.8916 19.5879 11.8955 19.7812 11.9182C19.9746 11.9407 20.0845 11.9502 20.1108 11.9465C20.1372 11.9426 20.2358 11.9541 20.4062 11.9805C20.5771 12.0071 20.6621 12.0203 20.6621 12.0203L20.8613 12.0601C20.918 12.0715 20.9619 12.0808 20.9922 12.0886L21.0376 12.0999C21.1357 12.1304 21.2266 12.1208 21.3105 12.0715C21.3936 12.0222 21.4468 11.9482 21.4697 11.8499L21.9585 10.0422C21.981 9.94385 21.9697 9.85278 21.9243 9.76953C21.856 9.67847 21.7803 9.62158 21.6968 9.59888C20.9995 9.42456 20.2642 9.3374 19.4912 9.3374C17.7935 9.3374 16.2759 9.82251 14.9385 10.7925C13.6006 11.7627 12.6777 13.0435 12.1699 14.635L11.0562 14.635C10.9502 14.635 10.8628 14.6689 10.7944 14.7373C10.7266 14.8054 10.6924 14.8926 10.6924 14.9988L10.6924 16.2947C10.6924 16.4009 10.7266 16.488 10.7944 16.5562C10.8628 16.6243 10.9502 16.6584 11.0562 16.6584L11.8179 16.6584C11.7949 17.0222 11.7915 17.4199 11.8062 17.8521L11.0562 17.8521C10.9575 17.8521 10.8726 17.8882 10.8003 17.96C10.7285 18.032 10.6924 18.1172 10.6924 18.2156L10.6924 19.5005C10.6924 19.5991 10.7285 19.6841 10.8003 19.7563C10.8726 19.8284 10.9575 19.864 11.0562 19.864L12.1362 19.864C12.6138 21.5388 13.5156 22.8711 14.8418 23.8599C16.1685 24.8494 17.7183 25.3435 19.4912 25.3435C19.6357 25.3435 19.7812 25.3401 19.9292 25.3323C20.0771 25.3247 20.2153 25.3132 20.3442 25.2981C20.4731 25.2832 20.6001 25.2664 20.7251 25.2471C20.8501 25.228 20.9639 25.2095 21.0659 25.1902C21.1685 25.1714 21.2651 25.1526 21.356 25.1335C21.4468 25.1145 21.5283 25.094 21.6006 25.071C21.6724 25.0486 21.7329 25.0312 21.7822 25.0203C21.8315 25.0088 21.8716 24.9954 21.9014 24.9805L21.9585 24.969C22.042 24.9387 22.1064 24.8835 22.1519 24.804C22.1973 24.7249 22.2085 24.6394 22.1855 24.5486Z" fill="#CAFF33" fill-opacity="1.000000" fill-rule="nonzero"/>
</svg>
