<svg width="38.149414" height="38.149658" viewBox="0 0 38.1494 38.1497" fill="none" xmlns="http://www.w3.org/2000/svg" xmlns:xlink="http://www.w3.org/1999/xlink">
	<desc>
			Created with Pixso.
	</desc>
	<defs>
		<clipPath id="clip5_86740">
			<rect id="Icon" width="20.808865" height="20.808865" transform="translate(8.669922 8.670410)" fill="white" fill-opacity="0"/>
		</clipPath>
	</defs>
	<rect id="Icon Container" rx="19.074791" width="38.149582" height="38.149582" fill="#CAFF33" fill-opacity="1.000000"/>
	<g clip-path="url(#clip5_86740)">
		<path id="Vector (Stroke)" d="M19.0742 13.2227C19.4331 13.2227 19.7246 13.5139 19.7246 13.873L19.7246 18.4248L24.2764 18.4248C24.6357 18.4248 24.9268 18.7161 24.9268 19.0752C24.9268 19.4343 24.6357 19.7253 24.2764 19.7253L19.7246 19.7253L19.7246 24.2773C19.7246 24.6365 19.4331 24.9277 19.0742 24.9277C18.7148 24.9277 18.4238 24.6365 18.4238 24.2773L18.4238 19.7253L13.8721 19.7253C13.5127 19.7253 13.2217 19.4343 13.2217 19.0752C13.2217 18.7161 13.5127 18.4248 13.8721 18.4248L18.4238 18.4248L18.4238 13.873C18.4238 13.5139 18.7148 13.2227 19.0742 13.2227Z" fill="#1A1A1A" fill-opacity="1.000000" fill-rule="evenodd"/>
	</g>
</svg>
