<svg width="34.681641" height="34.681396" viewBox="0 0 34.6816 34.6814" fill="none" xmlns="http://www.w3.org/2000/svg" xmlns:xlink="http://www.w3.org/1999/xlink">
	<desc>
			Created with Pixso.
	</desc>
	<defs/>
	<path id="Shape" d="M34.5874 17.3411C34.5874 26.8677 26.8647 34.5906 17.3384 34.5906C7.81152 34.5906 0.0888672 26.8677 0.0888672 17.3411C0.0888672 7.81445 7.81152 0.0917969 17.3384 0.0917969C26.8647 0.0917969 34.5874 7.81445 34.5874 17.3411Z" fill="#262626" fill-opacity="1.000000" fill-rule="nonzero"/>
	<g opacity="0.800000">
		<path id="Shape" d="M17.2827 9.3374L17.1763 9.69946L17.1763 20.2078L17.2827 20.3142L22.1606 17.4309L17.2827 9.3374Z" fill="#CAFF33" fill-opacity="1.000000" fill-rule="nonzero"/>
		<path id="Shape" d="M17.2832 9.3374L12.4053 17.4309L17.2832 20.3142L17.2832 15.2139L17.2832 9.3374Z" fill="#CAFF33" fill-opacity="1.000000" fill-rule="nonzero"/>
		<path id="Shape" d="M17.2827 21.9011L17.2227 21.9744L17.2227 25.7175L17.2827 25.8928L22.1636 19.0193L17.2827 21.9011Z" fill="#CAFF33" fill-opacity="1.000000" fill-rule="nonzero"/>
		<path id="Shape" d="M17.2832 25.8928L17.2832 21.9011L12.4053 19.0193L17.2832 25.8928Z" fill="#CAFF33" fill-opacity="1.000000" fill-rule="nonzero"/>
		<path id="Shape" d="M17.2832 20.3142L22.1611 17.4309L17.2832 15.2139L17.2832 20.3142Z" fill="#CAFF33" fill-opacity="1.000000" fill-rule="nonzero"/>
		<path id="Shape" d="M12.4053 17.4309L17.2832 20.3142L17.2832 15.2139L12.4053 17.4309Z" fill="#CAFF33" fill-opacity="1.000000" fill-rule="nonzero"/>
	</g>
</svg>
