<svg width="98.000000" height="98.000000" viewBox="0 0 98 98" fill="none" xmlns="http://www.w3.org/2000/svg" xmlns:xlink="http://www.w3.org/1999/xlink">
	<desc>
			Created with Pixso.
	</desc>
	<defs>
		<clipPath id="clip104_148">
			<rect id="Icon" width="34.000000" height="34.000000" transform="translate(32.000000 32.000000)" fill="white" fill-opacity="0"/>
		</clipPath>
		<linearGradient id="paint_linear_64_2032_0" x1="49.000000" y1="0.000000" x2="49.000000" y2="98.000000" gradientUnits="userSpaceOnUse">
			<stop stop-color="#CAFF33"/>
			<stop offset="1.000000" stop-color="#CAFF33" stop-opacity="0.000000"/>
		</linearGradient>
		<linearGradient id="paint_linear_64_2033_0" x1="49.000000" y1="-36.999992" x2="49.000000" y2="203.000000" gradientUnits="userSpaceOnUse">
			<stop stop-color="#CAFF33"/>
			<stop offset="0.467671" stop-color="#CAFF33" stop-opacity="0.000000"/>
		</linearGradient>
		<linearGradient id="paint_linear_64_2033_1" x1="49.000015" y1="-116.499985" x2="49.000015" y2="153.000015" gradientUnits="userSpaceOnUse">
			<stop stop-color="#CAFF33"/>
			<stop offset="0.716291" stop-color="#CAFF33" stop-opacity="0.000000"/>
		</linearGradient>
	</defs>
	<rect id="Icon Container" rx="49.000000" width="98.000000" height="98.000000" fill="url(#paint_linear_64_2032_0)" fill-opacity="0.050000"/>
	<rect id="Icon" rx="18.500000" width="73.000000" height="73.000000" transform="translate(12.500000 12.500000)" fill="url(#paint_linear_64_2033_0)" fill-opacity="0.100000"/>
	<g clip-path="url(#clip104_148)">
		<path id="Union" d="M36.25 40.5C36.25 38.1528 38.1523 36.25 40.5 36.25L43.6875 36.25C46.0352 36.25 47.9375 38.1528 47.9375 40.5L47.9375 43.6875C47.9375 46.0347 46.0352 47.9375 43.6875 47.9375L40.5 47.9375C38.1523 47.9375 36.25 46.0347 36.25 43.6875L36.25 40.5ZM50.0625 40.5C50.0625 38.1528 51.9648 36.25 54.3125 36.25L57.5 36.25C59.8477 36.25 61.75 38.1528 61.75 40.5L61.75 43.6875C61.75 46.0347 59.8477 47.9375 57.5 47.9375L54.3125 47.9375C51.9648 47.9375 50.0625 46.0347 50.0625 43.6875L50.0625 40.5ZM40.5 50.0625C38.1523 50.0625 36.25 51.9653 36.25 54.3125L36.25 57.5C36.25 59.8472 38.1523 61.75 40.5 61.75L43.6875 61.75C46.0352 61.75 47.9375 59.8472 47.9375 57.5L47.9375 54.3125C47.9375 51.9653 46.0352 50.0625 43.6875 50.0625L40.5 50.0625ZM55.9062 50.0625C56.4922 50.0625 56.9688 50.5382 56.9688 51.125L56.9688 54.8438L60.6875 54.8438C61.2734 54.8438 61.75 55.3195 61.75 55.9062C61.75 56.493 61.2734 56.9688 60.6875 56.9688L56.9688 56.9688L56.9688 60.6875C56.9688 61.2743 56.4922 61.75 55.9062 61.75C55.3203 61.75 54.8438 61.2743 54.8438 60.6875L54.8438 56.9688L51.125 56.9688C50.5391 56.9688 50.0625 56.493 50.0625 55.9062C50.0625 55.3195 50.5391 54.8438 51.125 54.8438L54.8438 54.8438L54.8438 51.125C54.8438 50.5382 55.3203 50.0625 55.9062 50.0625Z" fill="#CAFF33" fill-opacity="1.000000" fill-rule="evenodd"/>
	</g>
	<rect id="Icon" rx="18.500000" width="73.000000" height="73.000000" transform="translate(12.500000 12.500000)" stroke="url(#paint_linear_64_2033_1)" stroke-opacity="0.200000" stroke-width="1.000000"/>
</svg>
