<svg width="98.000000" height="98.000000" viewBox="0 0 98 98" fill="none" xmlns="http://www.w3.org/2000/svg" xmlns:xlink="http://www.w3.org/1999/xlink">
	<desc>
			Created with Pixso.
	</desc>
	<defs>
		<clipPath id="clip104_154">
			<rect id="Icon" width="34.000000" height="34.000000" transform="translate(32.000000 32.000000)" fill="white" fill-opacity="0"/>
		</clipPath>
		<linearGradient id="paint_linear_64_2077_0" x1="49.000000" y1="0.000000" x2="49.000000" y2="98.000000" gradientUnits="userSpaceOnUse">
			<stop stop-color="#CAFF33"/>
			<stop offset="1.000000" stop-color="#CAFF33" stop-opacity="0.000000"/>
		</linearGradient>
		<linearGradient id="paint_linear_64_2078_0" x1="49.000000" y1="-36.999992" x2="49.000000" y2="203.000000" gradientUnits="userSpaceOnUse">
			<stop stop-color="#CAFF33"/>
			<stop offset="0.467671" stop-color="#CAFF33" stop-opacity="0.000000"/>
		</linearGradient>
		<linearGradient id="paint_linear_64_2078_1" x1="49.000015" y1="-116.499985" x2="49.000015" y2="153.000015" gradientUnits="userSpaceOnUse">
			<stop stop-color="#CAFF33"/>
			<stop offset="0.716291" stop-color="#CAFF33" stop-opacity="0.000000"/>
		</linearGradient>
	</defs>
	<rect id="Icon Container" rx="49.000000" width="98.000000" height="98.000000" fill="url(#paint_linear_64_2077_0)" fill-opacity="0.050000"/>
	<rect id="Icon" rx="18.500000" width="73.000000" height="73.000000" transform="translate(12.500000 12.500000)" fill="url(#paint_linear_64_2078_0)" fill-opacity="0.100000"/>
	<g clip-path="url(#clip104_154)">
		<path id="Subtract" d="M49 35.1875C41.3711 35.1875 35.1875 41.3716 35.1875 49C35.1875 56.6284 41.3711 62.8125 49 62.8125C56.6289 62.8125 62.8125 56.6284 62.8125 49C62.8125 41.3716 56.6289 35.1875 49 35.1875ZM44.75 42.625C44.1641 42.625 43.6875 43.1007 43.6875 43.6875C43.6875 44.2743 44.1641 44.75 44.75 44.75L46.875 44.75C48.2637 44.75 49.4434 45.637 49.8809 46.875L44.75 46.875C44.1641 46.875 43.6875 47.3507 43.6875 47.9375C43.6875 48.5243 44.1641 49 44.75 49L49.8809 49C49.4434 50.238 48.2637 51.125 46.875 51.125L44.75 51.125C44.3203 51.125 43.9336 51.3839 43.7676 51.7809C43.6035 52.178 43.6953 52.6349 43.998 52.9388L48.248 57.1888C48.6641 57.6038 49.3359 57.6038 49.752 57.1888C50.166 56.7739 50.166 56.1011 49.752 55.6862L47.2988 53.2334C49.6777 53.0458 51.6172 51.2904 52.082 49L53.25 49C53.8359 49 54.3125 48.5243 54.3125 47.9375C54.3125 47.3507 53.8359 46.875 53.25 46.875L52.082 46.875C51.9219 46.09 51.5898 45.3678 51.125 44.75L53.25 44.75C53.8359 44.75 54.3125 44.2743 54.3125 43.6875C54.3125 43.1007 53.8359 42.625 53.25 42.625L44.75 42.625Z" fill="#CAFF33" fill-opacity="1.000000" fill-rule="evenodd"/>
	</g>
	<rect id="Icon" rx="18.500000" width="73.000000" height="73.000000" transform="translate(12.500000 12.500000)" stroke="url(#paint_linear_64_2078_1)" stroke-opacity="0.200000" stroke-width="1.000000"/>
</svg>
