<svg width="98.000000" height="98.000000" viewBox="0 0 98 98" fill="none" xmlns="http://www.w3.org/2000/svg" xmlns:xlink="http://www.w3.org/1999/xlink">
	<desc>
			Created with Pixso.
	</desc>
	<defs>
		<clipPath id="clip104_152">
			<rect id="Icon" width="34.000000" height="34.000000" transform="translate(32.000000 32.000000)" fill="white" fill-opacity="0"/>
		</clipPath>
		<linearGradient id="paint_linear_64_2066_0" x1="49.000000" y1="0.000000" x2="49.000000" y2="98.000000" gradientUnits="userSpaceOnUse">
			<stop stop-color="#CAFF33"/>
			<stop offset="1.000000" stop-color="#CAFF33" stop-opacity="0.000000"/>
		</linearGradient>
		<linearGradient id="paint_linear_64_2067_0" x1="49.000000" y1="-36.999992" x2="49.000000" y2="203.000000" gradientUnits="userSpaceOnUse">
			<stop stop-color="#CAFF33"/>
			<stop offset="0.467671" stop-color="#CAFF33" stop-opacity="0.000000"/>
		</linearGradient>
		<linearGradient id="paint_linear_64_2067_1" x1="49.000015" y1="-116.499985" x2="49.000015" y2="153.000015" gradientUnits="userSpaceOnUse">
			<stop stop-color="#CAFF33"/>
			<stop offset="0.716291" stop-color="#CAFF33" stop-opacity="0.000000"/>
		</linearGradient>
	</defs>
	<rect id="Icon Container" rx="49.000000" width="98.000000" height="98.000000" fill="url(#paint_linear_64_2066_0)" fill-opacity="0.050000"/>
	<rect id="Icon" rx="18.500000" width="73.000000" height="73.000000" transform="translate(12.500000 12.500000)" fill="url(#paint_linear_64_2067_0)" fill-opacity="0.100000"/>
	<g clip-path="url(#clip104_152)">
		<path id="Vector" d="M57.5 34.125C57.9883 34.125 58.4121 34.4568 58.5312 34.9298L58.8984 36.3967C59.2305 37.7291 60.2715 38.7694 61.6035 39.1025L63.0703 39.4692C63.543 39.5875 63.875 40.0125 63.875 40.5C63.875 40.9875 63.543 41.4125 63.0703 41.5308L61.6035 41.8975C60.2715 42.2306 59.2305 43.2709 58.8984 44.6033L58.5312 46.0702C58.4121 46.5432 57.9883 46.875 57.5 46.875C57.0117 46.875 56.5879 46.5432 56.4688 46.0702L56.1016 44.6033C55.7695 43.2709 54.7285 42.2306 53.3965 41.8975L51.9297 41.5308C51.457 41.4125 51.125 40.9875 51.125 40.5C51.125 40.0125 51.457 39.5875 51.9297 39.4692L53.3965 39.1025C54.7285 38.7694 55.7695 37.7291 56.1016 36.3967L56.4688 34.9298C56.5879 34.4568 57.0117 34.125 57.5 34.125ZM44.75 38.375C45.2246 38.375 45.6406 38.6895 45.7715 39.1456L46.9238 43.1777C47.4277 44.9426 48.8066 46.3221 50.5723 46.8263L54.6035 47.9784C55.0605 48.1088 55.375 48.5256 55.375 49C55.375 49.4744 55.0605 49.8912 54.6035 50.0216L50.5723 51.1737C48.8066 51.6779 47.4277 53.0575 46.9238 54.8223L45.7715 58.8544C45.6406 59.3105 45.2246 59.625 44.75 59.625C44.2754 59.625 43.8594 59.3105 43.7285 58.8544L42.5762 54.8223C42.0723 53.0575 40.6934 51.6779 38.9277 51.1737L34.8965 50.0216C34.4395 49.8912 34.125 49.4744 34.125 49C34.125 48.5256 34.4395 48.1088 34.8965 47.9784L38.9277 46.8263C40.6934 46.3221 42.0723 44.9425 42.5762 43.1777L43.7285 39.1456C43.8594 38.6895 44.2754 38.375 44.75 38.375ZM56.3828 53.9766C56.2383 53.5426 55.832 53.25 55.375 53.25C54.918 53.25 54.5117 53.5426 54.3672 53.9766L53.8086 55.6521C53.5977 56.2866 53.0996 56.7845 52.4648 56.996L50.7891 57.5546C50.3555 57.6991 50.0625 58.1052 50.0625 58.5625C50.0625 59.0198 50.3555 59.4259 50.7891 59.5704L52.4648 60.129C53.0996 60.3405 53.5977 60.8384 53.8086 61.4729L54.3672 63.1484C54.5117 63.5824 54.918 63.875 55.375 63.875C55.832 63.875 56.2383 63.5824 56.3828 63.1484L56.9414 61.4729C57.1523 60.8384 57.6504 60.3405 58.2852 60.129L59.9609 59.5704C60.3945 59.4259 60.6875 59.0198 60.6875 58.5625C60.6875 58.1052 60.3945 57.6991 59.9609 57.5546L58.2852 56.996C57.6504 56.7845 57.1523 56.2866 56.9414 55.6521L56.3828 53.9766Z" fill="#CAFF33" fill-opacity="1.000000" fill-rule="evenodd"/>
	</g>
	<rect id="Icon" rx="18.500000" width="73.000000" height="73.000000" transform="translate(12.500000 12.500000)" stroke="url(#paint_linear_64_2067_1)" stroke-opacity="0.200000" stroke-width="1.000000"/>
</svg>
