<svg width="98.000000" height="98.000000" viewBox="0 0 98 98" fill="none" xmlns="http://www.w3.org/2000/svg" xmlns:xlink="http://www.w3.org/1999/xlink">
	<desc>
			Created with Pixso.
	</desc>
	<defs>
		<clipPath id="clip104_150">
			<rect id="Icon" width="34.000000" height="34.000000" transform="translate(32.000000 32.000000)" fill="white" fill-opacity="0"/>
		</clipPath>
		<linearGradient id="paint_linear_64_2054_0" x1="49.000000" y1="0.000000" x2="49.000000" y2="98.000000" gradientUnits="userSpaceOnUse">
			<stop stop-color="#CAFF33"/>
			<stop offset="1.000000" stop-color="#CAFF33" stop-opacity="0.000000"/>
		</linearGradient>
		<linearGradient id="paint_linear_64_2055_0" x1="49.000000" y1="-36.999992" x2="49.000000" y2="203.000000" gradientUnits="userSpaceOnUse">
			<stop stop-color="#CAFF33"/>
			<stop offset="0.467671" stop-color="#CAFF33" stop-opacity="0.000000"/>
		</linearGradient>
		<linearGradient id="paint_linear_64_2055_1" x1="49.000015" y1="-116.499985" x2="49.000015" y2="153.000015" gradientUnits="userSpaceOnUse">
			<stop stop-color="#CAFF33"/>
			<stop offset="0.716291" stop-color="#CAFF33" stop-opacity="0.000000"/>
		</linearGradient>
	</defs>
	<rect id="Icon Container" rx="49.000000" width="98.000000" height="98.000000" fill="url(#paint_linear_64_2054_0)" fill-opacity="0.050000"/>
	<rect id="Icon" rx="18.500000" width="73.000000" height="73.000000" transform="translate(12.500000 12.500000)" fill="url(#paint_linear_64_2055_0)" fill-opacity="0.100000"/>
	<g clip-path="url(#clip104_150)">
		<path id="Union" d="M48.4961 34.252C48.8105 34.0826 49.1895 34.0826 49.5039 34.252L63.3164 41.6895C63.6602 41.8748 63.875 42.2341 63.875 42.625C63.875 43.0159 63.6602 43.3752 63.3164 43.5605L49.5039 50.998C49.1895 51.1674 48.8105 51.1674 48.4961 50.998L34.6836 43.5605C34.3398 43.3752 34.125 43.0159 34.125 42.625C34.125 42.2341 34.3398 41.8748 34.6836 41.6895L48.4961 34.252ZM36.625 47.0193L47.4883 52.869C48.4316 53.377 49.5684 53.377 50.5117 52.869L61.375 47.0193L63.3164 48.0645C63.6602 48.2498 63.875 48.6091 63.875 49C63.875 49.3909 63.6602 49.7501 63.3164 49.9355L49.5039 57.373C49.1895 57.5424 48.8105 57.5424 48.4961 57.373L34.6836 49.9355C34.3398 49.7501 34.125 49.3909 34.125 49C34.125 48.6091 34.3398 48.2498 34.6836 48.0645L36.625 47.0193ZM36.625 53.3943L47.4883 59.244C48.4316 59.752 49.5684 59.752 50.5117 59.244L61.375 53.3943L63.3164 54.4395C63.6602 54.6248 63.875 54.9841 63.875 55.375C63.875 55.7659 63.6602 56.1251 63.3164 56.3105L49.5039 63.748C49.1895 63.9174 48.8105 63.9174 48.4961 63.748L34.6836 56.3105C34.3398 56.1251 34.125 55.7659 34.125 55.375C34.125 54.9841 34.3398 54.6248 34.6836 54.4395L36.625 53.3943Z" fill="#CAFF33" fill-opacity="1.000000" fill-rule="evenodd"/>
	</g>
	<rect id="Icon" rx="18.500000" width="73.000000" height="73.000000" transform="translate(12.500000 12.500000)" stroke="url(#paint_linear_64_2055_1)" stroke-opacity="0.200000" stroke-width="1.000000"/>
</svg>
